<svg xmlns="http://www.w3.org/2000/svg" xmlns:xlink="http://www.w3.org/1999/xlink" contentStyleType="text/css" data-diagram-type="SEQUENCE" height="726px" preserveAspectRatio="none" style="width:1039px;height:726px;background:#F9F9F9;" version="1.1" viewBox="0 0 1039 726" width="1039px" zoomAndPan="magnify"><defs/><g><rect fill="#F9F9F9" height="726" style="stroke:none;stroke-width:1;" width="1039" x="0" y="0"/><line style="stroke:#393939;stroke-width:0.5;stroke-dasharray:5.0,5.0;" x1="39.4224" x2="39.4224" y1="52.5938" y2="673.9219"/><line style="stroke:#393939;stroke-width:0.5;stroke-dasharray:5.0,5.0;" x1="231.7217" x2="231.7217" y1="52.5938" y2="673.9219"/><line style="stroke:#393939;stroke-width:0.5;stroke-dasharray:5.0,5.0;" x1="341.6631" x2="341.6631" y1="52.5938" y2="673.9219"/><line style="stroke:#393939;stroke-width:0.5;stroke-dasharray:5.0,5.0;" x1="572.9585" x2="572.9585" y1="52.5938" y2="673.9219"/><line style="stroke:#393939;stroke-width:0.5;stroke-dasharray:5.0,5.0;" x1="757.0972" x2="757.0972" y1="52.5938" y2="673.9219"/><line style="stroke:#393939;stroke-width:0.5;stroke-dasharray:5.0,5.0;" x1="847.7373" x2="847.7373" y1="52.5938" y2="673.9219"/><line style="stroke:#393939;stroke-width:0.5;stroke-dasharray:5.0,5.0;" x1="958.082" x2="958.082" y1="52.5938" y2="673.9219"/><rect fill="#E55756" height="30.2969" rx="3.5" ry="3.5" style="stroke:#191919;stroke-width:1.5;" width="68.8447" x="5" y="21.2969"/><text fill="#F9F9F9" font-family="sans-serif" font-size="14" lengthAdjust="spacing" textLength="54.8447" x="12" y="41.292">Caliptra</text><rect fill="#E55756" height="30.2969" rx="3.5" ry="3.5" style="stroke:#191919;stroke-width:1.5;" width="72.4131" x="195.5151" y="21.2969"/><text fill="#F9F9F9" font-family="sans-serif" font-size="14" lengthAdjust="spacing" textLength="58.4131" x="202.5151" y="41.292">SHA Acc</text><rect fill="#E55756" height="30.2969" rx="3.5" ry="3.5" style="stroke:#191919;stroke-width:1.5;" width="127.4697" x="277.9282" y="21.2969"/><text fill="#F9F9F9" font-family="sans-serif" font-size="14" lengthAdjust="spacing" textLength="113.4697" x="284.9282" y="41.292">Caliptra Mailbox</text><rect fill="#E55756" height="30.2969" rx="3.5" ry="3.5" style="stroke:#191919;stroke-width:1.5;" width="46.1016" x="549.9077" y="21.2969"/><text fill="#F9F9F9" font-family="sans-serif" font-size="14" lengthAdjust="spacing" textLength="32.1016" x="556.9077" y="41.292">MCU</text><rect fill="#E55756" height="46.5938" rx="3.5" ry="3.5" style="stroke:#191919;stroke-width:1.5;" width="110.5918" x="701.8013" y="5"/><text fill="#F9F9F9" font-family="sans-serif" font-size="14" lengthAdjust="spacing" textLength="65.4473" x="722.1484" y="24.9951">PLDM FW</text><text fill="#F9F9F9" font-family="sans-serif" font-size="14" lengthAdjust="spacing" textLength="96.5918" x="708.8013" y="41.292">Update Agent</text><rect fill="#E55756" height="30.2969" rx="3.5" ry="3.5" style="stroke:#191919;stroke-width:1.5;" width="50.6885" x="822.3931" y="21.2969"/><text fill="#F9F9F9" font-family="sans-serif" font-size="14" lengthAdjust="spacing" textLength="36.6885" x="829.3931" y="41.292">Flash</text><rect fill="#E55756" height="30.2969" rx="3.5" ry="3.5" style="stroke:#191919;stroke-width:1.5;" width="150.001" x="883.0815" y="21.2969"/><text fill="#F9F9F9" font-family="sans-serif" font-size="14" lengthAdjust="spacing" textLength="136.001" x="890.0815" y="41.292">Vendor Component</text><rect fill="#E55756" height="30.2969" rx="3.5" ry="3.5" style="stroke:#191919;stroke-width:1.5;" width="68.8447" x="5" y="673.9219"/><text fill="#F9F9F9" font-family="sans-serif" font-size="14" lengthAdjust="spacing" textLength="54.8447" x="12" y="693.917">Caliptra</text><rect fill="#E55756" height="30.2969" rx="3.5" ry="3.5" style="stroke:#191919;stroke-width:1.5;" width="72.4131" x="195.5151" y="673.9219"/><text fill="#F9F9F9" font-family="sans-serif" font-size="14" lengthAdjust="spacing" textLength="58.4131" x="202.5151" y="693.917">SHA Acc</text><rect fill="#E55756" height="30.2969" rx="3.5" ry="3.5" style="stroke:#191919;stroke-width:1.5;" width="127.4697" x="277.9282" y="673.9219"/><text fill="#F9F9F9" font-family="sans-serif" font-size="14" lengthAdjust="spacing" textLength="113.4697" x="284.9282" y="693.917">Caliptra Mailbox</text><rect fill="#E55756" height="30.2969" rx="3.5" ry="3.5" style="stroke:#191919;stroke-width:1.5;" width="46.1016" x="549.9077" y="673.9219"/><text fill="#F9F9F9" font-family="sans-serif" font-size="14" lengthAdjust="spacing" textLength="32.1016" x="556.9077" y="693.917">MCU</text><rect fill="#E55756" height="46.5938" rx="3.5" ry="3.5" style="stroke:#191919;stroke-width:1.5;" width="110.5918" x="701.8013" y="673.9219"/><text fill="#F9F9F9" font-family="sans-serif" font-size="14" lengthAdjust="spacing" textLength="65.4473" x="722.1484" y="693.917">PLDM FW</text><text fill="#F9F9F9" font-family="sans-serif" font-size="14" lengthAdjust="spacing" textLength="96.5918" x="708.8013" y="710.2139">Update Agent</text><rect fill="#E55756" height="30.2969" rx="3.5" ry="3.5" style="stroke:#191919;stroke-width:1.5;" width="50.6885" x="822.3931" y="673.9219"/><text fill="#F9F9F9" font-family="sans-serif" font-size="14" lengthAdjust="spacing" textLength="36.6885" x="829.3931" y="693.917">Flash</text><rect fill="#E55756" height="30.2969" rx="3.5" ry="3.5" style="stroke:#191919;stroke-width:1.5;" width="150.001" x="883.0815" y="673.9219"/><text fill="#F9F9F9" font-family="sans-serif" font-size="14" lengthAdjust="spacing" textLength="136.001" x="890.0815" y="693.917">Vendor Component</text><path d="M26.9224,64.5938 L100.0464,64.5938 L100.0464,71.7266 L90.0464,81.7266 L23.4224,81.7266 L23.4224,68.0938 A3.5,3.5 0 0 1 26.9224,64.5938 " fill="#EEEEEE" style="stroke:#393939;stroke-width:1.5;"/><rect fill="none" height="585.3281" rx="3.5" ry="3.5" style="stroke:#393939;stroke-width:1;" width="975.6597" x="23.4224" y="64.5938"/><text fill="#191919" font-family="sans-serif" font-size="13" font-weight="bold" lengthAdjust="spacing" textLength="31.624" x="38.4224" y="77.6606">loop</text><text fill="#393939" font-family="sans-serif" font-size="11" font-weight="bold" lengthAdjust="spacing" textLength="137.3335" x="115.0464" y="76.8042">[for every SOC image]</text><polygon fill="#0000FF" points="352.6631,108.8594,342.6631,112.8594,352.6631,116.8594,348.6631,112.8594" style="stroke:#0000FF;stroke-width:1;"/><line style="stroke:#0000FF;stroke-width:1;" x1="346.6631" x2="571.9585" y1="112.8594" y2="112.8594"/><text fill="#000000" font-family="sans-serif" font-size="13" lengthAdjust="spacing" textLength="205.6196" x="358.6631" y="107.7935">17. get_image_offset(image_id)</text><polygon fill="#FF0000" points="50.4224,108.8594,40.4224,112.8594,50.4224,116.8594,46.4224,112.8594" style="stroke:#FF0000;stroke-width:1;"/><line style="stroke:#FF0000;stroke-width:1;" x1="44.4224" x2="340.6631" y1="112.8594" y2="112.8594"/><text fill="#000000" font-family="sans-serif" font-size="13" lengthAdjust="spacing" textLength="205.6196" x="56.4224" y="107.7935">17. get_image_offset(image_id)</text><polygon fill="#FF0000" points="329.6631,137.9922,339.6631,141.9922,329.6631,145.9922,333.6631,141.9922" style="stroke:#FF0000;stroke-width:1;"/><line style="stroke:#FF0000;stroke-width:1;" x1="39.4224" x2="335.6631" y1="141.9922" y2="141.9922"/><text fill="#000000" font-family="sans-serif" font-size="13" lengthAdjust="spacing" textLength="177.7725" x="46.4224" y="136.9263">18. image_offset(image_id)</text><polygon fill="#0000FF" points="560.9585,137.9922,570.9585,141.9922,560.9585,145.9922,564.9585,141.9922" style="stroke:#0000FF;stroke-width:1;"/><line style="stroke:#0000FF;stroke-width:1;" x1="341.6631" x2="566.9585" y1="141.9922" y2="141.9922"/><text fill="#000000" font-family="sans-serif" font-size="13" lengthAdjust="spacing" textLength="108.7734" x="348.6631" y="136.9263">18. image_offset</text><polygon fill="#0000FF" points="352.6631,167.125,342.6631,171.125,352.6631,175.125,348.6631,171.125" style="stroke:#0000FF;stroke-width:1;"/><line style="stroke:#0000FF;stroke-width:1;" x1="346.6631" x2="571.9585" y1="171.125" y2="171.125"/><text fill="#000000" font-family="sans-serif" font-size="13" lengthAdjust="spacing" textLength="207.2954" x="358.6631" y="166.0591">19. get_load_address(image_id)</text><polygon fill="#FF0000" points="50.4224,167.125,40.4224,171.125,50.4224,175.125,46.4224,171.125" style="stroke:#FF0000;stroke-width:1;"/><line style="stroke:#FF0000;stroke-width:1;" x1="44.4224" x2="340.6631" y1="171.125" y2="171.125"/><text fill="#000000" font-family="sans-serif" font-size="13" lengthAdjust="spacing" textLength="207.2954" x="56.4224" y="166.0591">19. get_load_address(image_id)</text><polygon fill="#FF0000" points="329.6631,196.2578,339.6631,200.2578,329.6631,204.2578,333.6631,200.2578" style="stroke:#FF0000;stroke-width:1;"/><line style="stroke:#FF0000;stroke-width:1;" x1="39.4224" x2="335.6631" y1="200.2578" y2="200.2578"/><text fill="#000000" font-family="sans-serif" font-size="13" lengthAdjust="spacing" textLength="110.4492" x="46.4224" y="195.1919">20. load_address</text><polygon fill="#0000FF" points="560.9585,196.2578,570.9585,200.2578,560.9585,204.2578,564.9585,200.2578" style="stroke:#0000FF;stroke-width:1;"/><line style="stroke:#0000FF;stroke-width:1;" x1="341.6631" x2="566.9585" y1="200.2578" y2="200.2578"/><text fill="#000000" font-family="sans-serif" font-size="13" lengthAdjust="spacing" textLength="110.4492" x="348.6631" y="195.1919">20. load_address</text><path d="M541.4585,212.2578 L614.5825,212.2578 L614.5825,219.3906 L604.5825,229.3906 L537.9585,229.3906 L537.9585,215.7578 A3.5,3.5 0 0 1 541.4585,212.2578 " fill="#EEEEEE" style="stroke:#393939;stroke-width:1.5;"/><rect fill="none" height="190.4688" rx="3.5" ry="3.5" style="stroke:#393939;stroke-width:1;" width="436.1235" x="537.9585" y="212.2578"/><text fill="#191919" font-family="sans-serif" font-size="13" font-weight="bold" lengthAdjust="spacing" textLength="31.624" x="552.9585" y="225.3247">loop</text><text fill="#393939" font-family="sans-serif" font-size="11" font-weight="bold" lengthAdjust="spacing" textLength="190.7275" x="629.5825" y="224.4683">[21. Transfer image in chunks]</text><path d="M560.4585,243.3906 L621.4014,243.3906 L621.4014,250.5234 L611.4014,260.5234 L556.9585,260.5234 L556.9585,246.8906 A3.5,3.5 0 0 1 560.4585,243.3906 " fill="#EEEEEE" style="stroke:#393939;stroke-width:1.5;"/><rect fill="none" height="116.2031" rx="3.5" ry="3.5" style="stroke:#393939;stroke-width:1;" width="306.7788" x="556.9585" y="243.3906"/><text fill="#191919" font-family="sans-serif" font-size="13" font-weight="bold" lengthAdjust="spacing" textLength="19.4429" x="571.9585" y="256.4575">alt</text><text fill="#393939" font-family="sans-serif" font-size="11" font-weight="bold" lengthAdjust="spacing" textLength="45.2031" x="636.4014" y="255.6011">[PLDM]</text><line style="stroke:#393939;stroke-width:1;stroke-dasharray:2.0,2.0;" x1="556.9585" x2="863.7373" y1="310.6563" y2="310.6563"/><text fill="#393939" font-family="sans-serif" font-size="11" font-weight="bold" lengthAdjust="spacing" textLength="43.1406" x="561.9585" y="322.8667">[Flash]</text><polygon fill="#0000FF" points="583.9585,287.6563,573.9585,291.6563,583.9585,295.6563,579.9585,291.6563" style="stroke:#0000FF;stroke-width:1;"/><line style="stroke:#0000FF;stroke-width:1;" x1="577.9585" x2="756.0972" y1="291.6563" y2="291.6563"/><text fill="#000000" font-family="sans-serif" font-size="13" lengthAdjust="spacing" textLength="160.1387" x="589.9585" y="286.5903">21.1.1. Image/Cfg chunk</text><polygon fill="#0000FF" points="583.9585,347.5938,573.9585,351.5938,583.9585,355.5938,579.9585,351.5938" style="stroke:#0000FF;stroke-width:1;"/><line style="stroke:#0000FF;stroke-width:1;" x1="577.9585" x2="846.7373" y1="351.5938" y2="351.5938"/><text fill="#000000" font-family="sans-serif" font-size="13" lengthAdjust="spacing" textLength="160.1387" x="589.9585" y="346.5278">21.1.2. Image/Cfg chunk</text><polygon fill="#0000FF" points="946.082,390.7266,956.082,394.7266,946.082,398.7266,950.082,394.7266" style="stroke:#0000FF;stroke-width:1;"/><line style="stroke:#0000FF;stroke-width:1;" x1="572.9585" x2="952.082" y1="394.7266" y2="394.7266"/><text fill="#000000" font-family="sans-serif" font-size="13" lengthAdjust="spacing" textLength="151.8677" x="579.9585" y="389.6606">21.2. Image/Cfg  chunk</text><polygon fill="#0000FF" points="352.6631,433.8594,342.6631,437.8594,352.6631,441.8594,348.6631,437.8594" style="stroke:#0000FF;stroke-width:1;"/><line style="stroke:#0000FF;stroke-width:1;" x1="346.6631" x2="571.9585" y1="437.8594" y2="437.8594"/><text fill="#000000" font-family="sans-serif" font-size="13" lengthAdjust="spacing" textLength="155.0796" x="358.6631" y="432.7935">22. authorize(image_id)</text><polygon fill="#FF0000" points="50.4224,433.8594,40.4224,437.8594,50.4224,441.8594,46.4224,437.8594" style="stroke:#FF0000;stroke-width:1;"/><line style="stroke:#FF0000;stroke-width:1;" x1="44.4224" x2="340.6631" y1="437.8594" y2="437.8594"/><text fill="#000000" font-family="sans-serif" font-size="13" lengthAdjust="spacing" textLength="155.0796" x="56.4224" y="432.7935">22. authorize(image_id)</text><polygon fill="#FF0000" points="242.7217,462.9922,232.7217,466.9922,242.7217,470.9922,238.7217,466.9922" style="stroke:#FF0000;stroke-width:1;"/><line style="stroke:#FF0000;stroke-width:1;" x1="236.7217" x2="957.082" y1="466.9922" y2="466.9922"/><text fill="#000000" font-family="sans-serif" font-size="13" lengthAdjust="spacing" textLength="91.8062" x="248.7217" y="461.9263">23. Image/Cfg</text><line style="stroke:#FF0000;stroke-width:1;" x1="39.4224" x2="81.4224" y1="526.3906" y2="526.3906"/><line style="stroke:#FF0000;stroke-width:1;" x1="81.4224" x2="81.4224" y1="526.3906" y2="539.3906"/><line style="stroke:#FF0000;stroke-width:1;" x1="40.4224" x2="81.4224" y1="539.3906" y2="539.3906"/><polygon fill="#FF0000" points="50.4224,535.3906,40.4224,539.3906,50.4224,543.3906,46.4224,539.3906" style="stroke:#FF0000;stroke-width:1;"/><text fill="#000000" font-family="sans-serif" font-size="13" lengthAdjust="spacing" textLength="174.167" x="46.4224" y="491.0591">24. Verify Hash in SHA Acc</text><text fill="#000000" font-family="sans-serif" font-size="13" lengthAdjust="spacing" textLength="155.7715" x="46.4224" y="506.1919">with SOC Manifest Hash</text><text fill="#000000" font-family="sans-serif" font-size="13" lengthAdjust="spacing" textLength="80.8628" x="50.5547" y="521.3247">for image_id</text><polygon fill="#FF0000" points="329.6631,564.5234,339.6631,568.5234,329.6631,572.5234,333.6631,568.5234" style="stroke:#FF0000;stroke-width:1;"/><line style="stroke:#FF0000;stroke-width:1;" x1="39.4224" x2="335.6631" y1="568.5234" y2="568.5234"/><text fill="#000000" font-family="sans-serif" font-size="13" lengthAdjust="spacing" textLength="123.7412" x="46.4224" y="563.4575">25. Return success</text><polygon fill="#0000FF" points="560.9585,564.5234,570.9585,568.5234,560.9585,572.5234,564.9585,568.5234" style="stroke:#0000FF;stroke-width:1;"/><line style="stroke:#0000FF;stroke-width:1;" x1="341.6631" x2="566.9585" y1="568.5234" y2="568.5234"/><text fill="#000000" font-family="sans-serif" font-size="13" lengthAdjust="spacing" textLength="52.3301" x="348.6631" y="563.4575">Success</text><polygon fill="#0000FF" points="50.4224,608.7891,40.4224,612.7891,50.4224,616.7891,46.4224,612.7891" style="stroke:#0000FF;stroke-width:1;"/><line style="stroke:#0000FF;stroke-width:1;" x1="44.4224" x2="571.9585" y1="612.7891" y2="612.7891"/><text fill="#000000" font-family="sans-serif" font-size="13" lengthAdjust="spacing" textLength="223.2026" x="56.4224" y="592.5903">26. Set EXEC/Go Bit of component</text><text fill="#000000" font-family="sans-serif" font-size="13" lengthAdjust="spacing" textLength="173.5322" x="56.4224" y="607.7231">corresponding to image_id</text><polygon fill="#FF0000" points="946.082,637.9219,956.082,641.9219,946.082,645.9219,950.082,641.9219" style="stroke:#FF0000;stroke-width:1;"/><line style="stroke:#FF0000;stroke-width:1;" x1="39.4224" x2="952.082" y1="641.9219" y2="641.9219"/><text fill="#000000" font-family="sans-serif" font-size="13" lengthAdjust="spacing" textLength="98.5537" x="46.4224" y="636.856">27. Go wire set</text><!--SRC=[ZLHjRzCm4FxkNt4R4e8FPBIy3FPXKWaRGw82qNMRHAVAIow9HM97zeMn_NeS9rwJDHbLfCYNUvxpSs_PemmBX89hmqgkIKIYv99WF-IvA4dpVU06lD67BCvcC8iYXx3dOJxCkSXlr5-7Qizzv3nSDivmoLZVzUFRvpcSNi9ABikO4y8iHKaENRlwuDEScypvtAdll40PAmsXAaebVOp8M_PUbYjLGc8n-0Vr7Io-Xo0AdY9ZLjYhNyzkyWglZziCZc1o642Aj7QOjKeIW_IYCKJyaZttkLgcnlZwsDVZ2Fv7PHxggPixFmImmtsjqd2vpHXBvcEZA5SyNlCurcZChiayJHrFPlewW2vfB8KjNDEfwII0SysbIL0tAOAG46ML_6qOpwaPaBrIyxJWGAZkWNI5hFxyw899K3_mjGvo42Pf4uLXRh0T9VSUO4q7M3BkrVXXnXobHzWme4vfk3LJI-4LPKgBUzoj9sEK1ocUOfVMejzqD6srgnFrRG0Ng4Lo1sUs6dMrsn-0NSzRGPbRcJcN8a533hEIRg6yWe5kZ4_7km1-8bLQWgcYw8dvMBJkRlKwgjy7i422awkJyE2BWa-2G2MRpL_9I6axLjQAXKo1r4RkOt7TLjeLjj5kXKQeryhty1y0]--></g></svg>