<?xml version="1.0" encoding="UTF-8" standalone="no"?>
<!DOCTYPE svg PUBLIC "-//W3C//DTD SVG 1.1//EN" "http://www.w3.org/Graphics/SVG/1.1/DTD/svg11.dtd">
<!-- Generated by Microsoft Visio, SVG Export image_loading_sw_stack.svg Page-1 -->
<svg xmlns="http://www.w3.org/2000/svg" xmlns:xlink="http://www.w3.org/1999/xlink" xmlns:ev="http://www.w3.org/2001/xml-events"
		xmlns:v="http://schemas.microsoft.com/visio/2003/SVGExtensions/" width="10.5677in" height="2.51409in"
		viewBox="0 0 760.875 181.015" xml:space="preserve" color-interpolation-filters="sRGB" class="st13">
	<v:documentProperties v:langID="1033" v:viewMarkup="false"/>

	<style type="text/css">
	<![CDATA[
		.st1 {fill:#fff2cc;stroke:none;stroke-linecap:round;stroke-linejoin:round;stroke-width:0.75}
		.st2 {fill:#000000;font-family:Calibri;font-size:1.5em;font-weight:bold}
		.st3 {fill:#ffd965;stroke:none;stroke-linecap:round;stroke-linejoin:round;stroke-width:0.75}
		.st4 {fill:#000000;font-family:Calibri;font-size:1.16666em;font-weight:bold}
		.st5 {fill:#bfbfbf;stroke:none;stroke-linecap:round;stroke-linejoin:round;stroke-width:0.75}
		.st6 {fill:none}
		.st7 {stroke:#000000;stroke-linecap:round;stroke-linejoin:round;stroke-width:0.24}
		.st8 {fill:#00b050;font-family:Calibri;font-size:0.833336em;font-weight:bold}
		.st9 {font-size:1em}
		.st10 {fill:#ff0000;font-family:Calibri;font-size:0.833336em;font-weight:bold}
		.st11 {fill:none;stroke:none;stroke-width:0.25}
		.st12 {fill:#156082;font-family:Calibri;font-size:1.5em}
		.st13 {fill:none;fill-rule:evenodd;font-size:12px;overflow:visible;stroke-linecap:square;stroke-miterlimit:3}
	]]>
	</style>

	<g v:mID="0" v:index="1" v:groupContext="foregroundPage">
		<title>Page-1</title>
		<v:pageProperties v:drawingScale="1" v:pageScale="1" v:drawingUnits="0" v:shadowOffsetX="9" v:shadowOffsetY="-9"/>
		<g id="shape1010-1" v:mID="1010" v:groupContext="shape" transform="translate(93.9023,-0.375)">
			<title>Sheet.1010</title>
			<desc>MCTP</desc>
			<v:userDefs/>
			<v:textBlock v:margins="rect(4,4,4,4)"/>
			<v:textRect cx="85.7988" cy="158.515" width="171.62" height="45"/>
			<path d="M0 178.2 A7.80008 2.81257 -180 0 0 7.8 181.01 L163.8 181.01 A7.80008 2.81257 -180 0 0 171.6 178.2 L171.6 138.83
						 A7.80008 2.81257 -180 0 0 163.8 136.01 L7.8 136.01 A7.80008 2.81257 -180 0 0 0 138.83 L0 178.2 Z"
					class="st1"/>
			<text x="26.82" y="163.91" class="st2" v:langID="1033"><v:paragraph v:horizAlign="1"/><v:tabList/>Flash Controller</text>		</g>
		<g id="shape1016-4" v:mID="1016" v:groupContext="shape" transform="translate(93.9023,-61.2083)">
			<title>Sheet.1016</title>
			<desc>Image Loading</desc>
			<v:userDefs/>
			<v:textBlock v:margins="rect(4,4,4,4)"/>
			<v:textRect cx="333.299" cy="163.971" width="666.65" height="34.0833"/>
			<path d="M0 176.51 A20.8317 4.5001 -180 0 0 20.83 181.01 L645.77 181.01 A20.8317 4.5001 -180 0 0 666.6 176.51 L666.6
						 151.43 A20.8317 4.5001 -180 0 0 645.77 146.93 L20.83 146.93 A20.8317 4.5001 -180 0 0 -0 151.43 L0 176.51
						 Z" class="st3"/>
			<text x="291.13" y="168.17" class="st4" v:langID="1033"><v:paragraph v:horizAlign="1"/><v:tabList/>Image Loading</text>		</g>
		<g id="shape1026-7" v:mID="1026" v:groupContext="shape" transform="translate(93.9023,-108.64)">
			<title>Sheet.1026</title>
			<desc>ROT Applications</desc>
			<v:userDefs/>
			<v:textBlock v:margins="rect(4,4,4,4)"/>
			<v:textRect cx="333.299" cy="145.015" width="666.62" height="72"/>
			<path d="M0 176.51 A5.55511 4.5001 -180 0 0 5.55 181.01 L661.04 181.01 A5.55511 4.5001 -180 0 0 666.6 176.51 L666.6 113.51
						 A5.55511 4.5001 -180 0 0 661.04 109.01 L5.55 109.01 A5.55511 4.5001 -180 0 0 -0 113.51 L0 176.51 Z"
					class="st5"/>
			<text x="269.32" y="150.41" class="st2" v:langID="1033"><v:paragraph v:horizAlign="1"/><v:tabList/>ROT Applications</text>		</g>
		<g id="shape1038-10" v:mID="1038" v:groupContext="shape" transform="translate(236.841,180.64) rotate(90) scale(-1,1)">
			<title>Side brace.1003</title>
			<desc>MCU SDK</desc>
			<v:userDefs>
				<v:ud v:nameU="TxtW" v:val="VT0(0.55555555555556):29"/>
				<v:ud v:nameU="TxtA" v:prompt="" v:val="VT0(0):26"/>
				<v:ud v:nameU="TxtAState" v:val="VT0(0):26"/>
				<v:ud v:nameU="TxtWState" v:val="VT0(0):26"/>
				<v:ud v:nameU="MaxRadius" v:val="VT0(0.25):1"/>
				<v:ud v:nameU="PosCH1" v:prompt="Constrains X position of Control Handle #1" v:val="VT0(0):26"/>
				<v:ud v:nameU="PosCH2" v:prompt="Constrains Y position of Control Handle #2" v:val="VT0(0):26"/>
				<v:ud v:nameU="Scale" v:val="VT0(1):26"/>
				<v:ud v:nameU="AntiScale" v:val="VT0(1):26"/>
				<v:ud v:nameU="visVersion" v:val="VT0(15):26"/>
			</v:userDefs>
			<v:textBlock v:margins="rect(4,4,4,4)"/>
			<v:textRect cx="45.1017" cy="204.809" width="37.07" height="27.2035" transform="rotate(-90)"/>
			<path d="M0 154.01 L0 163.01 A1.74889 8.99985 -180 0 0 1.75 172.01 L45.5 172.01 A1.74889 8.99985 0 0 1 47.25 181.01 A1.74889
						 8.99985 0 0 1 49 172.01 L92.75 172.01 A1.74889 8.99985 -180 0 0 94.5 163.01 L94.5 154.01 L0 154.01 Z"
					class="st6"/>
			<path d="M0 154.01 L0 163.01 A1.74889 8.99985 -180 0 0 1.75 172.01 L45.5 172.01 A1.74889 8.99985 0 0 1 47.25 181.01 A1.74889
						 8.99985 0 0 1 49 172.01 L92.75 172.01 A1.74889 8.99985 -180 0 0 94.5 163.01 L94.5 154.01" class="st7"/>
			<text x="-215.09" y="-48.1" transform="rotate(90) scale(-1,1)" class="st8" v:langID="1033"><v:paragraph
						v:horizAlign="1"/><v:tabList/>MCU<v:newlineChar/><tspan x="-213.06" dy="1.2em" class="st9">SDK</tspan></text>		</g>
		<g id="shape1040-15" v:mID="1040" v:groupContext="shape" transform="translate(239.25,72.375) rotate(90) scale(-1,1)">
			<title>Side brace.1005</title>
			<desc>Silicon Vendor Provided</desc>
			<v:userDefs>
				<v:ud v:nameU="TxtW" v:val="VT0(0.55555555555556):29"/>
				<v:ud v:nameU="TxtA" v:prompt="" v:val="VT0(0):26"/>
				<v:ud v:nameU="TxtAState" v:val="VT0(0):26"/>
				<v:ud v:nameU="TxtWState" v:val="VT0(0):26"/>
				<v:ud v:nameU="MaxRadius" v:val="VT0(0.25):1"/>
				<v:ud v:nameU="PosCH1" v:prompt="Constrains X position of Control Handle #1" v:val="VT0(0):26"/>
				<v:ud v:nameU="PosCH2" v:prompt="Constrains Y position of Control Handle #2" v:val="VT0(0):26"/>
				<v:ud v:nameU="Scale" v:val="VT0(1):26"/>
				<v:ud v:nameU="AntiScale" v:val="VT0(1):26"/>
				<v:ud v:nameU="visVersion" v:val="VT0(15):26"/>
				<v:ud v:nameU="visAltText" v:val="VT4()"/>
				<v:ud v:nameU="visAltDescription" v:val="VT4()"/>
			</v:userDefs>
			<v:textBlock v:margins="rect(4,4,4,4)"/>
			<v:textRect cx="36" cy="214.418" width="49.67" height="36.8035" transform="rotate(-90)"/>
			<path d="M0 154.01 L0 163.01 A5.14277 8.99985 -180 0 0 5.14 172.01 L30.86 172.01 A5.14277 8.99985 0 0 1 36 181.01 A5.14277
						 8.99985 0 0 1 41.14 172.01 L66.86 172.01 A5.14277 8.99985 -180 0 0 72 163.01 L72 154.01 L0 154.01 Z"
					class="st6"/>
			<path d="M0 154.01 L0 163.01 A5.14277 8.99985 -180 0 0 5.14 172.01 L30.86 172.01 A5.14277 8.99985 0 0 1 36 181.01 A5.14277
						 8.99985 0 0 1 41.14 172.01 L66.86 172.01 A5.14277 8.99985 -180 0 0 72 163.01 L72 154.01" class="st7"/>
			<text x="-227.93" y="-45" transform="rotate(90) scale(-1,1)" class="st10" v:langID="1033"><v:paragraph v:horizAlign="1"/><v:tabList/>Silicon <tspan
						x="-229.72" dy="1.2em" class="st9">Vendor </tspan><tspan x="-233.02" dy="1.2em" class="st9">Provided</tspan></text>		</g>
		<g id="shape1041-21" v:mID="1041" v:groupContext="shape" transform="translate(8,-27.1397)">
			<title>Sheet.1041</title>
			<desc>`</desc>
			<v:textBlock v:margins="rect(4,4,4,4)"/>
			<v:textRect cx="76" cy="171.015" width="152.01" height="20"/>
			<rect x="0" y="161.015" width="152" height="20" class="st11"/>
			<text x="73.38" y="176.41" class="st12" v:langID="1033"><v:paragraph v:horizAlign="1"/><v:tabList/>`</text>		</g>
		<g id="shape1042-24" v:mID="1042" v:groupContext="shape" transform="translate(276.576,-0.375)">
			<title>Sheet.1042</title>
			<desc>MCTP</desc>
			<v:userDefs/>
			<v:textBlock v:margins="rect(4,4,4,4)"/>
			<v:textRect cx="85.7988" cy="158.515" width="171.62" height="45"/>
			<path d="M0 178.2 A7.80008 2.81257 -180 0 0 7.8 181.01 L163.8 181.01 A7.80008 2.81257 -180 0 0 171.6 178.2 L171.6 138.83
						 A7.80008 2.81257 -180 0 0 163.8 136.01 L7.8 136.01 A7.80008 2.81257 -180 0 0 0 138.83 L0 178.2 Z"
					class="st1"/>
			<text x="37.92" y="163.91" class="st2" v:langID="1033"><v:paragraph v:horizAlign="1"/><v:tabList/>PLDM/MCTP</text>		</g>
		<g id="shape1043-27" v:mID="1043" v:groupContext="shape" transform="translate(459.249,-0.375)">
			<title>Sheet.1043</title>
			<desc>MCTP</desc>
			<v:userDefs/>
			<v:textBlock v:margins="rect(4,4,4,4)"/>
			<v:textRect cx="72" cy="158.515" width="144.02" height="45"/>
			<path d="M0 178.2 A6.54561 2.81257 -180 0 0 6.55 181.01 L137.45 181.01 A6.54561 2.81257 -180 0 0 144 178.2 L144 138.83
						 A6.54561 2.81257 -180 0 0 137.45 136.01 L6.55 136.01 A6.54561 2.81257 -180 0 0 -0 138.83 L0 178.2 Z"
					class="st1"/>
			<text x="10.21" y="163.91" class="st2" v:langID="1033"><v:paragraph v:horizAlign="1"/><v:tabList/>Caliptra Mailbox</text>		</g>
		<g id="shape1044-30" v:mID="1044" v:groupContext="shape" transform="translate(614.325,-0.375)">
			<title>Sheet.1044</title>
			<desc>MCTP</desc>
			<v:userDefs/>
			<v:textBlock v:margins="rect(4,4,4,4)"/>
			<v:textRect cx="73.0877" cy="158.515" width="146.2" height="45"/>
			<path d="M0 178.2 A6.64449 2.81257 -180 0 0 6.64 181.01 L139.53 181.01 A6.64449 2.81257 -180 0 0 146.18 178.2 L146.18
						 138.83 A6.64449 2.81257 -180 0 0 139.53 136.01 L6.64 136.01 A6.64449 2.81257 -180 0 0 -0 138.83 L0 178.2
						 Z" class="st1"/>
			<text x="27" y="163.91" class="st2" v:langID="1033"><v:paragraph v:horizAlign="1"/><v:tabList/>DMA Engine</text>		</g>
	</g>
</svg>
