<svg xmlns="http://www.w3.org/2000/svg" xmlns:xlink="http://www.w3.org/1999/xlink" contentStyleType="text/css" data-diagram-type="SEQUENCE" height="1112px" preserveAspectRatio="none" style="width:1228px;height:1112px;background:#F9F9F9;" version="1.1" viewBox="0 0 1228 1112" width="1228px" zoomAndPan="magnify"><defs/><g><rect fill="#F9F9F9" height="1112" style="stroke:none;stroke-width:1;" width="1228" x="0" y="0"/><rect fill="none" height="90.2031" rx="3.5" ry="3.5" style="stroke:#393939;stroke-width:1;" width="330.9976" x="890.032" y="261.3906"/><rect fill="none" height="90.2031" rx="3.5" ry="3.5" style="stroke:#393939;stroke-width:1;" width="330.9976" x="890.032" y="465.9922"/><rect fill="none" height="90.2031" rx="3.5" ry="3.5" style="stroke:#393939;stroke-width:1;" width="470.5303" x="750.4993" y="953.6563"/><line style="stroke:#393939;stroke-width:0.5;stroke-dasharray:5.0,5.0;" x1="99.8411" x2="99.8411" y1="52.5938" y2="1060.8594"/><line style="stroke:#393939;stroke-width:0.5;stroke-dasharray:5.0,5.0;" x1="305.5212" x2="305.5212" y1="52.5938" y2="1060.8594"/><line style="stroke:#393939;stroke-width:0.5;stroke-dasharray:5.0,5.0;" x1="414.9343" x2="414.9343" y1="52.5938" y2="1060.8594"/><line style="stroke:#393939;stroke-width:0.5;stroke-dasharray:5.0,5.0;" x1="512.4041" x2="512.4041" y1="52.5938" y2="1060.8594"/><line style="stroke:#393939;stroke-width:0.5;stroke-dasharray:5.0,5.0;" x1="805.4993" x2="805.4993" y1="52.5938" y2="1060.8594"/><line style="stroke:#393939;stroke-width:0.5;stroke-dasharray:5.0,5.0;" x1="950.032" x2="950.032" y1="52.5938" y2="1060.8594"/><line style="stroke:#393939;stroke-width:0.5;stroke-dasharray:5.0,5.0;" x1="1094.7493" x2="1094.7493" y1="52.5938" y2="1060.8594"/><line style="stroke:#393939;stroke-width:0.5;stroke-dasharray:5.0,5.0;" x1="1185.3411" x2="1185.3411" y1="52.5938" y2="1060.8594"/><rect fill="#E55756" height="30.2969" rx="3.5" ry="3.5" style="stroke:#191919;stroke-width:1.5;" width="68.8447" x="65.8411" y="21.2969"/><text fill="#F9F9F9" font-family="sans-serif" font-size="14" lengthAdjust="spacing" textLength="54.8447" x="72.8411" y="41.292">Caliptra</text><rect fill="#E55756" height="30.2969" rx="3.5" ry="3.5" style="stroke:#191919;stroke-width:1.5;" width="68.8447" x="65.8411" y="1059.8594"/><text fill="#F9F9F9" font-family="sans-serif" font-size="14" lengthAdjust="spacing" textLength="54.8447" x="72.8411" y="1079.8545">Caliptra</text><rect fill="#E55756" height="30.2969" rx="3.5" ry="3.5" style="stroke:#191919;stroke-width:1.5;" width="72.4131" x="269.5212" y="21.2969"/><text fill="#F9F9F9" font-family="sans-serif" font-size="14" lengthAdjust="spacing" textLength="58.4131" x="276.5212" y="41.292">SHA Acc</text><rect fill="#E55756" height="30.2969" rx="3.5" ry="3.5" style="stroke:#191919;stroke-width:1.5;" width="72.4131" x="269.5212" y="1059.8594"/><text fill="#F9F9F9" font-family="sans-serif" font-size="14" lengthAdjust="spacing" textLength="58.4131" x="276.5212" y="1079.8545">SHA Acc</text><rect fill="#E55756" height="30.2969" rx="3.5" ry="3.5" style="stroke:#191919;stroke-width:1.5;" width="127.4697" x="351.9343" y="21.2969"/><text fill="#F9F9F9" font-family="sans-serif" font-size="14" lengthAdjust="spacing" textLength="113.4697" x="358.9343" y="41.292">Caliptra Mailbox</text><rect fill="#E55756" height="30.2969" rx="3.5" ry="3.5" style="stroke:#191919;stroke-width:1.5;" width="127.4697" x="351.9343" y="1059.8594"/><text fill="#F9F9F9" font-family="sans-serif" font-size="14" lengthAdjust="spacing" textLength="113.4697" x="358.9343" y="1079.8545">Caliptra Mailbox</text><rect fill="#E55756" height="30.2969" rx="3.5" ry="3.5" style="stroke:#191919;stroke-width:1.5;" width="46.1016" x="489.4041" y="21.2969"/><text fill="#F9F9F9" font-family="sans-serif" font-size="14" lengthAdjust="spacing" textLength="32.1016" x="496.4041" y="41.292">MCU</text><rect fill="#E55756" height="30.2969" rx="3.5" ry="3.5" style="stroke:#191919;stroke-width:1.5;" width="46.1016" x="489.4041" y="1059.8594"/><text fill="#F9F9F9" font-family="sans-serif" font-size="14" lengthAdjust="spacing" textLength="32.1016" x="496.4041" y="1079.8545">MCU</text><rect fill="#E55756" height="30.2969" rx="3.5" ry="3.5" style="stroke:#191919;stroke-width:1.5;" width="90.8223" x="760.4993" y="21.2969"/><text fill="#F9F9F9" font-family="sans-serif" font-size="14" lengthAdjust="spacing" textLength="76.8223" x="767.4993" y="41.292">MCU SRAM</text><rect fill="#E55756" height="30.2969" rx="3.5" ry="3.5" style="stroke:#191919;stroke-width:1.5;" width="90.8223" x="760.4993" y="1059.8594"/><text fill="#F9F9F9" font-family="sans-serif" font-size="14" lengthAdjust="spacing" textLength="76.8223" x="767.4993" y="1079.8545">MCU SRAM</text><rect fill="#E55756" height="30.2969" rx="3.5" ry="3.5" style="stroke:#191919;stroke-width:1.5;" width="100.8916" x="900.032" y="21.2969"/><text fill="#F9F9F9" font-family="sans-serif" font-size="14" lengthAdjust="spacing" textLength="86.8916" x="907.032" y="41.292">Recovery I/F</text><rect fill="#E55756" height="30.2969" rx="3.5" ry="3.5" style="stroke:#191919;stroke-width:1.5;" width="100.8916" x="900.032" y="1059.8594"/><text fill="#F9F9F9" font-family="sans-serif" font-size="14" lengthAdjust="spacing" textLength="86.8916" x="907.032" y="1079.8545">Recovery I/F</text><rect fill="#E55756" height="46.5938" rx="3.5" ry="3.5" style="stroke:#191919;stroke-width:1.5;" width="110.5918" x="1039.7493" y="5"/><text fill="#F9F9F9" font-family="sans-serif" font-size="14" lengthAdjust="spacing" textLength="65.4473" x="1060.0964" y="24.9951">PLDM FW</text><text fill="#F9F9F9" font-family="sans-serif" font-size="14" lengthAdjust="spacing" textLength="96.5918" x="1046.7493" y="41.292">Update Agent</text><rect fill="#E55756" height="46.5938" rx="3.5" ry="3.5" style="stroke:#191919;stroke-width:1.5;" width="110.5918" x="1039.7493" y="1059.8594"/><text fill="#F9F9F9" font-family="sans-serif" font-size="14" lengthAdjust="spacing" textLength="65.4473" x="1060.0964" y="1079.8545">PLDM FW</text><text fill="#F9F9F9" font-family="sans-serif" font-size="14" lengthAdjust="spacing" textLength="96.5918" x="1046.7493" y="1096.1514">Update Agent</text><rect fill="#E55756" height="30.2969" rx="3.5" ry="3.5" style="stroke:#191919;stroke-width:1.5;" width="50.6885" x="1160.3411" y="21.2969"/><text fill="#F9F9F9" font-family="sans-serif" font-size="14" lengthAdjust="spacing" textLength="36.6885" x="1167.3411" y="41.292">Flash</text><rect fill="#E55756" height="30.2969" rx="3.5" ry="3.5" style="stroke:#191919;stroke-width:1.5;" width="50.6885" x="1160.3411" y="1059.8594"/><text fill="#F9F9F9" font-family="sans-serif" font-size="14" lengthAdjust="spacing" textLength="36.6885" x="1167.3411" y="1079.8545">Flash</text><path d="M18,71.0938 L18,89.0938 A3.5,3.5 0 0 0 21.5,92.5938 L178.5,92.5938 A3.5,3.5 0 0 0 182,89.0938 L182,77.5938 L172,67.5938 L21.5,67.5938 A3.5,3.5 0 0 0 18,71.0938 " fill="#E5E5E5" style="stroke:#191919;stroke-width:1.5;"/><path d="M172,67.5938 L172,75.8438 A1.75,1.75 0 0 0 173.75,77.5938 L182,77.5938 L172,67.5938 " fill="#E5E5E5" style="stroke:#191919;stroke-width:1.5;"/><text fill="#191919" font-family="sans-serif" font-size="13" lengthAdjust="spacing" textLength="143.5269" x="24" y="84.6606">Running Caliptra ROM</text><path d="M440,71.0938 L440,89.0938 A3.5,3.5 0 0 0 443.5,92.5938 L579.5,92.5938 A3.5,3.5 0 0 0 583,89.0938 L583,77.5938 L573,67.5938 L443.5,67.5938 A3.5,3.5 0 0 0 440,71.0938 " fill="#E5E5E5" style="stroke:#191919;stroke-width:1.5;"/><path d="M573,67.5938 L573,75.8438 A1.75,1.75 0 0 0 574.75,77.5938 L583,77.5938 L573,67.5938 " fill="#E5E5E5" style="stroke:#191919;stroke-width:1.5;"/><text fill="#191919" font-family="sans-serif" font-size="13" lengthAdjust="spacing" textLength="122.4082" x="446" y="84.6606">Running MCU ROM</text><line style="stroke:#800080;stroke-width:1;" x1="512.4548" x2="554.4548" y1="133.9922" y2="133.9922"/><line style="stroke:#800080;stroke-width:1;" x1="554.4548" x2="554.4548" y1="133.9922" y2="146.9922"/><line style="stroke:#800080;stroke-width:1;" x1="513.4548" x2="554.4548" y1="146.9922" y2="146.9922"/><polygon fill="#800080" points="523.4548,142.9922,513.4548,146.9922,523.4548,150.9922,519.4548,146.9922" style="stroke:#800080;stroke-width:1;"/><text fill="#000000" font-family="sans-serif" font-size="13" lengthAdjust="spacing" textLength="150.5537" x="519.4548" y="113.7935">1. Image Source Select</text><text fill="#000000" font-family="sans-serif" font-size="13" lengthAdjust="spacing" textLength="84.8999" x="519.4548" y="128.9263">(Flash/PLDM)</text><path d="M72,163.4922 L72,181.4922 A3.5,3.5 0 0 0 75.5,184.9922 L1208.5,184.9922 A3.5,3.5 0 0 0 1212,181.4922 L1212,169.9922 L1202,159.9922 L75.5,159.9922 A3.5,3.5 0 0 0 72,163.4922 " fill="#E5E5E5" style="stroke:#191919;stroke-width:1.5;"/><path d="M1202,159.9922 L1202,168.2422 A1.75,1.75 0 0 0 1203.75,169.9922 L1212,169.9922 L1202,159.9922 " fill="#E5E5E5" style="stroke:#191919;stroke-width:1.5;"/><text fill="#191919" font-family="sans-serif" font-size="13" lengthAdjust="spacing" textLength="243.5024" x="515.843" y="177.0591">2. Authorize and Load Caliptra RT FW</text><path d="M5,198.625 L5,216.625 A3.5,3.5 0 0 0 8.5,220.125 L193.5,220.125 A3.5,3.5 0 0 0 197,216.625 L197,205.125 L187,195.125 L8.5,195.125 A3.5,3.5 0 0 0 5,198.625 " fill="#E5E5E5" style="stroke:#191919;stroke-width:1.5;"/><path d="M187,195.125 L187,203.375 A1.75,1.75 0 0 0 188.75,205.125 L197,205.125 L187,195.125 " fill="#E5E5E5" style="stroke:#191919;stroke-width:1.5;"/><text fill="#191919" font-family="sans-serif" font-size="13" lengthAdjust="spacing" textLength="171.0186" x="11" y="212.1919">3. Running Caliptra RT FW</text><polygon fill="#FF0000" points="938.4778,242.3906,948.4778,246.3906,938.4778,250.3906,942.4778,246.3906" style="stroke:#FF0000;stroke-width:1;"/><line style="stroke:#FF0000;stroke-width:1;" x1="100.2634" x2="944.4778" y1="246.3906" y2="246.3906"/><text fill="#000000" font-family="sans-serif" font-size="13" lengthAdjust="spacing" textLength="170.79" x="107.2634" y="241.3247">4. Ready for SOC Manifest</text><path d="M893.532,261.3906 L954.4749,261.3906 L954.4749,268.5234 L944.4749,278.5234 L890.032,278.5234 L890.032,264.8906 A3.5,3.5 0 0 1 893.532,261.3906 " fill="#EEEEEE" style="stroke:#393939;stroke-width:1.5;"/><rect fill="none" height="90.2031" rx="3.5" ry="3.5" style="stroke:#393939;stroke-width:1;" width="330.9976" x="890.032" y="261.3906"/><text fill="#191919" font-family="sans-serif" font-size="13" font-weight="bold" lengthAdjust="spacing" textLength="19.4429" x="905.032" y="274.4575">alt</text><text fill="#393939" font-family="sans-serif" font-size="11" font-weight="bold" lengthAdjust="spacing" textLength="45.2031" x="969.4749" y="273.6011">[PLDM]</text><polygon fill="#191919" points="961.4778,295.6563,951.4778,299.6563,961.4778,303.6563,957.4778,299.6563" style="stroke:#191919;stroke-width:1;"/><line style="stroke:#191919;stroke-width:1;" x1="955.4778" x2="1094.0452" y1="299.6563" y2="299.6563"/><text fill="#000000" font-family="sans-serif" font-size="13" lengthAdjust="spacing" textLength="116.1113" x="967.4778" y="294.5903">5.1. SOC Manifest</text><line style="stroke:#393939;stroke-width:1;stroke-dasharray:2.0,2.0;" x1="890.032" x2="1221.0295" y1="308.6563" y2="308.6563"/><text fill="#393939" font-family="sans-serif" font-size="11" font-weight="bold" lengthAdjust="spacing" textLength="43.1406" x="895.032" y="318.8667">[Flash]</text><polygon fill="#800080" points="961.4778,339.5938,951.4778,343.5938,961.4778,347.5938,957.4778,343.5938" style="stroke:#800080;stroke-width:1;"/><line style="stroke:#800080;stroke-width:1;" x1="955.4778" x2="1184.6853" y1="343.5938" y2="343.5938"/><text fill="#000000" font-family="sans-serif" font-size="13" lengthAdjust="spacing" textLength="116.1113" x="967.4778" y="338.5278">5.2. SOC Manifest</text><polygon fill="#FF0000" points="426.6692,375.7266,416.6692,379.7266,426.6692,383.7266,422.6692,379.7266" style="stroke:#FF0000;stroke-width:1;"/><line style="stroke:#FF0000;stroke-width:1;" x1="420.6692" x2="949.4778" y1="379.7266" y2="379.7266"/><text fill="#000000" font-family="sans-serif" font-size="13" lengthAdjust="spacing" textLength="103.708" x="432.6692" y="374.6606">6. SOC Manifest</text><line style="stroke:#FF0000;stroke-width:1;" x1="100.2634" x2="142.2634" y1="408.8594" y2="408.8594"/><line style="stroke:#FF0000;stroke-width:1;" x1="142.2634" x2="142.2634" y1="408.8594" y2="421.8594"/><line style="stroke:#FF0000;stroke-width:1;" x1="101.2634" x2="142.2634" y1="421.8594" y2="421.8594"/><polygon fill="#FF0000" points="111.2634,417.8594,101.2634,421.8594,111.2634,425.8594,107.2634,421.8594" style="stroke:#FF0000;stroke-width:1;"/><text fill="#000000" font-family="sans-serif" font-size="13" lengthAdjust="spacing" textLength="191.4644" x="107.2634" y="403.7935">7. Authenticate SOC Manifest</text><polygon fill="#FF0000" points="938.4778,446.9922,948.4778,450.9922,938.4778,454.9922,942.4778,450.9922" style="stroke:#FF0000;stroke-width:1;"/><line style="stroke:#FF0000;stroke-width:1;" x1="100.2634" x2="944.4778" y1="450.9922" y2="450.9922"/><text fill="#000000" font-family="sans-serif" font-size="13" lengthAdjust="spacing" textLength="179.3784" x="107.2634" y="445.9263">8. Ready for MCU RT Image</text><path d="M893.532,465.9922 L954.4749,465.9922 L954.4749,473.125 L944.4749,483.125 L890.032,483.125 L890.032,469.4922 A3.5,3.5 0 0 1 893.532,465.9922 " fill="#EEEEEE" style="stroke:#393939;stroke-width:1.5;"/><rect fill="none" height="90.2031" rx="3.5" ry="3.5" style="stroke:#393939;stroke-width:1;" width="330.9976" x="890.032" y="465.9922"/><text fill="#191919" font-family="sans-serif" font-size="13" font-weight="bold" lengthAdjust="spacing" textLength="19.4429" x="905.032" y="479.0591">alt</text><text fill="#393939" font-family="sans-serif" font-size="11" font-weight="bold" lengthAdjust="spacing" textLength="45.2031" x="969.4749" y="478.2026">[PLDM]</text><polygon fill="#191919" points="961.4778,500.2578,951.4778,504.2578,961.4778,508.2578,957.4778,504.2578" style="stroke:#191919;stroke-width:1;"/><line style="stroke:#191919;stroke-width:1;" x1="955.4778" x2="1094.0452" y1="504.2578" y2="504.2578"/><text fill="#000000" font-family="sans-serif" font-size="13" lengthAdjust="spacing" textLength="120.5674" x="967.4778" y="499.1919">9.1 MCU RT Image</text><line style="stroke:#393939;stroke-width:1;stroke-dasharray:2.0,2.0;" x1="890.032" x2="1221.0295" y1="513.2578" y2="513.2578"/><text fill="#393939" font-family="sans-serif" font-size="11" font-weight="bold" lengthAdjust="spacing" textLength="43.1406" x="895.032" y="523.4683">[Flash]</text><polygon fill="#800080" points="961.4778,544.1953,951.4778,548.1953,961.4778,552.1953,957.4778,548.1953" style="stroke:#800080;stroke-width:1;"/><line style="stroke:#800080;stroke-width:1;" x1="955.4778" x2="1184.6853" y1="548.1953" y2="548.1953"/><text fill="#000000" font-family="sans-serif" font-size="13" lengthAdjust="spacing" textLength="124.6997" x="967.4778" y="543.1294">9.2. MCU RT Image</text><polygon fill="#FF0000" points="816.9104,580.3281,806.9104,584.3281,816.9104,588.3281,812.9104,584.3281" style="stroke:#FF0000;stroke-width:1;"/><line style="stroke:#FF0000;stroke-width:1;" x1="810.9104" x2="949.4778" y1="584.3281" y2="584.3281"/><text fill="#000000" font-family="sans-serif" font-size="13" lengthAdjust="spacing" textLength="120.5674" x="822.9104" y="579.2622">10. MCU RT Image</text><polygon fill="#FF0000" points="316.7278,609.4609,306.7278,613.4609,316.7278,617.4609,312.7278,613.4609" style="stroke:#FF0000;stroke-width:1;"/><line style="stroke:#FF0000;stroke-width:1;" x1="310.7278" x2="804.9104" y1="613.4609" y2="613.4609"/><text fill="#000000" font-family="sans-serif" font-size="13" lengthAdjust="spacing" textLength="133.0278" x="322.7278" y="608.395">11. Hash MCU SRAM</text><line style="stroke:#FF0000;stroke-width:1;" x1="100.2634" x2="142.2634" y1="657.7266" y2="657.7266"/><line style="stroke:#FF0000;stroke-width:1;" x1="142.2634" x2="142.2634" y1="657.7266" y2="670.7266"/><line style="stroke:#FF0000;stroke-width:1;" x1="101.2634" x2="142.2634" y1="670.7266" y2="670.7266"/><polygon fill="#FF0000" points="111.2634,666.7266,101.2634,670.7266,111.2634,674.7266,107.2634,670.7266" style="stroke:#FF0000;stroke-width:1;"/><text fill="#000000" font-family="sans-serif" font-size="13" lengthAdjust="spacing" textLength="175.3667" x="107.2634" y="637.5278">12. Compare SOC Manifest</text><text fill="#000000" font-family="sans-serif" font-size="13" lengthAdjust="spacing" textLength="146.6118" x="107.2634" y="652.6606">Hash vs SHA Acc Hash</text><line style="stroke:#FF0000;stroke-width:1;" x1="100.2634" x2="142.2634" y1="699.8594" y2="699.8594"/><line style="stroke:#FF0000;stroke-width:1;" x1="142.2634" x2="142.2634" y1="699.8594" y2="712.8594"/><line style="stroke:#FF0000;stroke-width:1;" x1="101.2634" x2="142.2634" y1="712.8594" y2="712.8594"/><polygon fill="#FF0000" points="111.2634,708.8594,101.2634,712.8594,111.2634,716.8594,107.2634,712.8594" style="stroke:#FF0000;stroke-width:1;"/><text fill="#000000" font-family="sans-serif" font-size="13" lengthAdjust="spacing" textLength="131.1426" x="107.2634" y="694.7935">13. Set EXEC/GO Bit</text><polygon fill="#FF0000" points="500.4548,737.9922,510.4548,741.9922,500.4548,745.9922,504.4548,741.9922" style="stroke:#FF0000;stroke-width:1;"/><line style="stroke:#FF0000;stroke-width:1;" x1="100.2634" x2="506.4548" y1="741.9922" y2="741.9922"/><text fill="#000000" font-family="sans-serif" font-size="13" lengthAdjust="spacing" textLength="98.5537" x="107.2634" y="736.9263">14. Go wire set</text><line style="stroke:#800080;stroke-width:1;" x1="512.4548" x2="554.4548" y1="771.125" y2="771.125"/><line style="stroke:#800080;stroke-width:1;" x1="554.4548" x2="554.4548" y1="771.125" y2="784.125"/><line style="stroke:#800080;stroke-width:1;" x1="513.4548" x2="554.4548" y1="784.125" y2="784.125"/><polygon fill="#800080" points="523.4548,780.125,513.4548,784.125,523.4548,788.125,519.4548,784.125" style="stroke:#800080;stroke-width:1;"/><text fill="#000000" font-family="sans-serif" font-size="13" lengthAdjust="spacing" textLength="169.1206" x="519.4548" y="766.0591">14. Detected GO Bit is set</text><line style="stroke:#800080;stroke-width:1;" x1="512.4548" x2="554.4548" y1="813.2578" y2="813.2578"/><line style="stroke:#800080;stroke-width:1;" x1="554.4548" x2="554.4548" y1="813.2578" y2="826.2578"/><line style="stroke:#800080;stroke-width:1;" x1="513.4548" x2="554.4548" y1="826.2578" y2="826.2578"/><polygon fill="#800080" points="523.4548,822.2578,513.4548,826.2578,523.4548,830.2578,519.4548,826.2578" style="stroke:#800080;stroke-width:1;"/><text fill="#000000" font-family="sans-serif" font-size="13" lengthAdjust="spacing" textLength="246.0288" x="519.4548" y="808.1919">14. Set Image Select in HandOff table</text><path d="M435,842.7578 L435,860.7578 A3.5,3.5 0 0 0 438.5,864.2578 L585.5,864.2578 A3.5,3.5 0 0 0 589,860.7578 L589,849.2578 L579,839.2578 L438.5,839.2578 A3.5,3.5 0 0 0 435,842.7578 " fill="#E5E5E5" style="stroke:#191919;stroke-width:1.5;"/><path d="M579,839.2578 L579,847.5078 A1.75,1.75 0 0 0 580.75,849.2578 L589,849.2578 L579,839.2578 " fill="#E5E5E5" style="stroke:#191919;stroke-width:1.5;"/><text fill="#191919" font-family="sans-serif" font-size="13" lengthAdjust="spacing" textLength="133.707" x="441" y="856.3247">15. Running MCU RT</text><line style="stroke:#0000FF;stroke-width:1;" x1="512.4548" x2="554.4548" y1="890.5234" y2="890.5234"/><line style="stroke:#0000FF;stroke-width:1;" x1="554.4548" x2="554.4548" y1="890.5234" y2="903.5234"/><line style="stroke:#0000FF;stroke-width:1;" x1="513.4548" x2="554.4548" y1="903.5234" y2="903.5234"/><polygon fill="#0000FF" points="523.4548,899.5234,513.4548,903.5234,523.4548,907.5234,519.4548,903.5234" style="stroke:#0000FF;stroke-width:1;"/><text fill="#000000" font-family="sans-serif" font-size="13" lengthAdjust="spacing" textLength="279.4556" x="519.4548" y="885.4575">16. Retrieve Image Select in HandOff table</text><path d="M475,920.0234 L475,938.0234 A3.5,3.5 0 0 0 478.5,941.5234 L1126.5,941.5234 A3.5,3.5 0 0 0 1130,938.0234 L1130,926.5234 L1120,916.5234 L478.5,916.5234 A3.5,3.5 0 0 0 475,920.0234 " fill="#E5E5E5" style="stroke:#191919;stroke-width:1.5;"/><path d="M1120,916.5234 L1120,924.7734 A1.75,1.75 0 0 0 1121.75,926.5234 L1130,926.5234 L1120,916.5234 " fill="#E5E5E5" style="stroke:#191919;stroke-width:1.5;"/><text fill="#191919" font-family="sans-serif" font-size="13" lengthAdjust="spacing" textLength="148.3638" x="724.2866" y="933.5903">17. MCTP enumeration</text><path d="M753.9993,953.6563 L814.9421,953.6563 L814.9421,960.7891 L804.9421,970.7891 L750.4993,970.7891 L750.4993,957.1563 A3.5,3.5 0 0 1 753.9993,953.6563 " fill="#EEEEEE" style="stroke:#393939;stroke-width:1.5;"/><rect fill="none" height="90.2031" rx="3.5" ry="3.5" style="stroke:#393939;stroke-width:1;" width="470.5303" x="750.4993" y="953.6563"/><text fill="#191919" font-family="sans-serif" font-size="13" font-weight="bold" lengthAdjust="spacing" textLength="19.4429" x="765.4993" y="966.7231">alt</text><text fill="#393939" font-family="sans-serif" font-size="11" font-weight="bold" lengthAdjust="spacing" textLength="45.2031" x="829.9421" y="965.8667">[PLDM]</text><polygon fill="#0000FF" points="816.9104,987.9219,806.9104,991.9219,816.9104,995.9219,812.9104,991.9219" style="stroke:#0000FF;stroke-width:1;"/><line style="stroke:#0000FF;stroke-width:1;" x1="810.9104" x2="1094.0452" y1="991.9219" y2="991.9219"/><text fill="#000000" font-family="sans-serif" font-size="13" lengthAdjust="spacing" textLength="235.2188" x="822.9104" y="986.856">18.1 Get Image Metadata Collection</text><line style="stroke:#393939;stroke-width:1;stroke-dasharray:2.0,2.0;" x1="750.4993" x2="1221.0295" y1="1000.9219" y2="1000.9219"/><text fill="#393939" font-family="sans-serif" font-size="11" font-weight="bold" lengthAdjust="spacing" textLength="43.1406" x="755.4993" y="1011.1323">[Flash]</text><polygon fill="#0000FF" points="816.9104,1031.8594,806.9104,1035.8594,816.9104,1039.8594,812.9104,1035.8594" style="stroke:#0000FF;stroke-width:1;"/><line style="stroke:#0000FF;stroke-width:1;" x1="810.9104" x2="1184.6853" y1="1035.8594" y2="1035.8594"/><text fill="#000000" font-family="sans-serif" font-size="13" lengthAdjust="spacing" textLength="235.2188" x="822.9104" y="1030.7935">18.2 Get Image Metadata Collection</text><!--SRC=[ZLJRRjf047tVhvYcBwsKc4AR6m-Hg1D8f5X4NDHAJLGjzW0hcRMrNjEcNz_PDGjUS4bVx5tFcSkPcUDtUeahX1LN1SkvqY8MEPSQJaAUYbmhVWAy07Vn8UFx7lJYs2BetEmF4HVfBFjjKPkpZup2QMKCfmS668zwaRF-D1SVCi8uMwDwXOTMtyBS1n_sz7WRGVyRFCjfdd2Dq5kWrDR1c7nmF-N5qjhiYJ6PaOU9kkr35qQbb48kjbzWD8nO2tPGgdU7CamCWD7XxCVxl5HvYYyt5jCEu6755mZZh5GnlJ35M3_B3pPxozJtiQ64KslkGYU0NgcNcH9_4BXCu37ZIQsi2V5kPF0vQ21XqSpTgLI5oSkDQseNlf0JykGLvfc2yJ2aYKennq8pdkggb-PnLdCv3uYX1yMqm4rlxRFMaRfRPzzD9emvW2jjir5TkDX37v3OCR-iMaOR86Ap3CVzTYLTrSdRaKwgqVsR_7NGzf7_nVtQSFVTYFi1zOqYQ8K-xS6PipaioPDWD8XxoWbEM4TwrAOAmcn5ml3xGnAo8TPMyaR-DkInIBHeOzHmz_qkR0s6y5Ne0tGb15gkGGQ_1AKiK3TgXI2tg4aVc40L2qHn36qoR-HbTGL2Ki4o6SxdeFaiHROdsVPvuCjsubGxIyjjv0kp2be9NECRuVtufsP1oF_I36po12ZB5IgkHIRtbgYMpqtvYfPfiEKJeURqB-CqfjIaDY4QjgiXIkUjA3Bv2m00]--></g></svg>