<?xml version="1.0" encoding="UTF-8" standalone="no"?>
<!-- Generated by Microsoft Visio, SVG Export MCU Stack.svg Page-1 -->

<svg
   width="9.4679918in"
   height="10.378333in"
   viewBox="0 0 681.69541 747.23998"
   xml:space="preserve"
   color-interpolation-filters="sRGB"
   class="st17"
   version="1.1"
   id="svg498"
   xmlns="http://www.w3.org/2000/svg"
   xmlns:svg="http://www.w3.org/2000/svg"
   xmlns:v="http://schemas.microsoft.com/visio/2003/SVGExtensions/"><defs
   id="defs502" />
	<v:documentProperties
   v:langID="1033"
   v:viewMarkup="false">
		<v:userDefs>
			<v:ud
   v:nameU="msvNoAutoConnect"
   v:val="VT0(1):26" />
		</v:userDefs>
	</v:documentProperties>

	<style
   type="text/css"
   id="style2">
	<![CDATA[
		.st1 {fill:#ebf1df;stroke:none;stroke-linecap:round;stroke-linejoin:round;stroke-width:0.75}
		.st2 {fill:#000000;font-family:Calibri;font-size:1.00001em;font-weight:bold}
		.st3 {fill:#f2dcda;stroke:none;stroke-linecap:round;stroke-linejoin:round;stroke-width:0.75}
		.st4 {font-size:1em}
		.st5 {fill:#dbeef3;stroke:none;stroke-linecap:round;stroke-linejoin:round;stroke-width:0.75}
		.st6 {fill:#92cddc;stroke:none;stroke-linecap:round;stroke-linejoin:round;stroke-width:0.75}
		.st7 {fill:#ff0000;font-family:Calibri;font-size:1.00001em;font-weight:bold}
		.st8 {fill:#fff2cc;stroke:none;stroke-linecap:round;stroke-linejoin:round;stroke-width:0.75}
		.st9 {fill:#eeeaf2;stroke:none;stroke-linecap:round;stroke-linejoin:round;stroke-width:0.75}
		.st10 {fill:#ffd965;stroke:none;stroke-linecap:round;stroke-linejoin:round;stroke-width:0.75}
		.st11 {fill:#f59d56;stroke:none;stroke-linecap:round;stroke-linejoin:round;stroke-width:0.75}
		.st12 {fill:#bfbfbf;stroke:none;stroke-linecap:round;stroke-linejoin:round;stroke-width:0.75}
		.st13 {stroke:#000000;stroke-linecap:round;stroke-linejoin:round;stroke-width:0.24}
		.st14 {fill:#000000;font-family:Calibri;font-size:0.666664em;font-weight:bold}
		.st15 {fill:#00b050;font-family:Calibri;font-size:0.666664em;font-weight:bold}
		.st16 {fill:#ff0000;font-family:Calibri;font-size:0.666664em;font-weight:bold}
		.st17 {fill:none;fill-rule:evenodd;font-size:12px;overflow:visible;stroke-linecap:square;stroke-miterlimit:3}
	]]>
	</style>

	<g
   v:mID="0"
   v:index="1"
   v:groupContext="foregroundPage"
   id="g496"
   transform="translate(-171.81299,-71.88)">
		<title
   id="title4">Page-1</title>
		<v:pageProperties
   v:drawingScale="1"
   v:pageScale="1"
   v:drawingUnits="19"
   v:shadowOffsetX="9"
   v:shadowOffsetY="-9" />
		<v:layer
   v:name="Connector"
   v:index="0" />
		<g
   id="shape1-1"
   v:mID="1"
   v:groupContext="shape"
   transform="translate(242.667,-783)">
			<title
   id="title6">Sheet.1</title>
			<desc
   id="desc8">MCU ROM</desc>
			<v:textBlock
   v:margins="rect(4,4,4,4)" />
			<v:textRect
   cx="270"
   cy="1525.5"
   width="540.01"
   height="45" />
			<rect
   x="0"
   y="1503"
   width="540"
   height="45"
   rx="4.5"
   ry="4.5"
   class="st1"
   id="rect10" />
			<text
   x="243.63"
   y="1529.1"
   class="st2"
   v:langID="1033"
   id="text12"><v:paragraph
   v:horizAlign="1" /><v:tabList />MCU ROM</text>		</g>
		<g
   id="shape2-4"
   v:mID="2"
   v:groupContext="shape"
   transform="translate(242.667,-729)">
			<title
   id="title15">Sheet.2</title>
			<desc
   id="desc17">Software Emulator</desc>
			<v:textBlock
   v:margins="rect(4,4,4,4)" />
			<v:textRect
   cx="76.6667"
   cy="1530"
   width="153.34"
   height="36" />
			<rect
   x="0"
   y="1512"
   width="153.33299"
   height="36"
   rx="4.5"
   ry="4.5"
   class="st3"
   id="rect19" />
			<text
   x="54.040001"
   y="1526.4"
   class="st2"
   v:langID="1033"
   id="text23"><v:paragraph
   v:horizAlign="1" /><v:tabList />Software<v:newlineChar /><tspan
   x="53.77"
   dy="1.2em"
   class="st4"
   id="tspan21">Emulator</tspan></text>		</g>
		<g
   id="shape3-8"
   v:mID="3"
   v:groupContext="shape"
   transform="translate(629.333,-729)">
			<title
   id="title26">Sheet.3</title>
			<desc
   id="desc28">FPGA</desc>
			<v:textBlock
   v:margins="rect(4,4,4,4)" />
			<v:textRect
   cx="76.6667"
   cy="1530"
   width="153.34"
   height="36" />
			<rect
   x="0"
   y="1512"
   width="153.33299"
   height="36"
   rx="4.5"
   ry="4.5"
   class="st3"
   id="rect30" />
			<text
   x="63.259998"
   y="1533.6"
   class="st2"
   v:langID="1033"
   id="text32"><v:paragraph
   v:horizAlign="1" /><v:tabList />FPGA</text>		</g>
		<g
   id="shape7-11"
   v:mID="7"
   v:groupContext="shape"
   transform="translate(242.667,-845.993)">
			<title
   id="title35">Sheet.7</title>
			<desc
   id="desc37">TOCK Kernel</desc>
			<v:textBlock
   v:margins="rect(4,4,4,4)"
   v:verticalAlign="2" />
			<v:textRect
   cx="270"
   cy="1458"
   width="540.01"
   height="180.007" />
			<rect
   x="0"
   y="1367.99"
   width="540"
   height="180.007"
   rx="4.5"
   ry="4.5"
   class="st5"
   id="rect39" />
			<text
   x="239.00999"
   y="1540.4"
   class="st2"
   v:langID="1033"
   id="text41"><v:paragraph
   v:horizAlign="1" /><v:tabList /><v:newlineChar /><v:paragraph
   v:horizAlign="1" />TOCK Kernel</text>		</g>
		<g
   id="shape8-14"
   v:mID="8"
   v:groupContext="shape"
   transform="translate(251.667,-954)">
			<title
   id="title44">Sheet.8</title>
			<desc
   id="desc46">UART Driver</desc>
			<v:textBlock
   v:margins="rect(4,4,4,4)" />
			<v:textRect
   cx="36"
   cy="1516.5"
   width="72.01"
   height="63" />
			<rect
   x="0"
   y="1485"
   width="72"
   height="63"
   rx="4.5"
   ry="4.5"
   class="st6"
   id="rect48" />
			<text
   x="22.1"
   y="1512.9"
   class="st2"
   v:langID="1033"
   id="text52"><v:paragraph
   v:horizAlign="1" /><v:tabList />UART<v:newlineChar /><tspan
   x="20.620001"
   dy="1.2em"
   class="st4"
   id="tspan50">Driver</tspan></text>		</g>
		<g
   id="shape10-18"
   v:mID="10"
   v:groupContext="shape"
   transform="translate(341.54,-954)">
			<title
   id="title55">Sheet.10</title>
			<desc
   id="desc57">I3C Driver</desc>
			<v:textBlock
   v:margins="rect(4,4,4,4)" />
			<v:textRect
   cx="36"
   cy="1516.5"
   width="72.01"
   height="63" />
			<rect
   x="0"
   y="1485"
   width="72"
   height="63"
   rx="4.5"
   ry="4.5"
   class="st6"
   id="rect59" />
			<text
   x="28.18"
   y="1512.9"
   class="st2"
   v:langID="1033"
   id="text63"><v:paragraph
   v:horizAlign="1" /><v:tabList />I3C<v:newlineChar /><tspan
   x="20.620001"
   dy="1.2em"
   class="st4"
   id="tspan61">Driver</tspan></text>		</g>
		<g
   id="shape11-22"
   v:mID="11"
   v:groupContext="shape"
   transform="translate(341.539,-882)">
			<title
   id="title66">Sheet.11</title>
			<desc
   id="desc68">SPI Flash Driver (vendor)</desc>
			<v:textBlock
   v:margins="rect(4,4,4,4)" />
			<v:textRect
   cx="36"
   cy="1516.5"
   width="72.01"
   height="63" />
			<rect
   x="0"
   y="1485"
   width="72"
   height="63"
   rx="4.5"
   ry="4.5"
   class="st6"
   id="rect70" />
			<text
   x="14.21"
   y="1505.7"
   class="st7"
   v:langID="1033"
   id="text76"><v:paragraph
   v:horizAlign="1" /><v:tabList />SPI Flash<v:newlineChar /><tspan
   x="20.620001"
   dy="1.2em"
   class="st4"
   id="tspan72">Driver<v:newlineChar /></tspan><tspan
   x="14.6"
   dy="1.2em"
   class="st4"
   id="tspan74">(vendor)</tspan></text>		</g>
		<g
   id="shape12-27"
   v:mID="12"
   v:groupContext="shape"
   transform="translate(521.286,-954)">
			<title
   id="title79">Sheet.12</title>
			<desc
   id="desc81">Fuse Controller Driver</desc>
			<v:textBlock
   v:margins="rect(4,4,4,4)" />
			<v:textRect
   cx="36"
   cy="1516.5"
   width="72.01"
   height="63" />
			<rect
   x="0"
   y="1485"
   width="72"
   height="63"
   rx="4.5"
   ry="4.5"
   class="st6"
   id="rect83" />
			<text
   x="24.610001"
   y="1505.7"
   class="st2"
   v:langID="1033"
   id="text89"><v:paragraph
   v:horizAlign="1" /><v:tabList />Fuse<v:newlineChar /><v:paragraph
   v:horizAlign="1" /><tspan
   x="10.84"
   dy="1.2em"
   class="st4"
   id="tspan85">Controller<v:newlineChar /><v:paragraph
   v:horizAlign="1" /></tspan><tspan
   x="20.620001"
   dy="1.2em"
   class="st4"
   id="tspan87">Driver</tspan></text>		</g>
		<g
   id="shape13-32"
   v:mID="13"
   v:groupContext="shape"
   transform="translate(611.159,-954)">
			<title
   id="title92">Sheet.13</title>
			<desc
   id="desc94">Caliptra Mailbox Driver</desc>
			<v:textBlock
   v:margins="rect(4,4,4,4)" />
			<v:textRect
   cx="34.65"
   cy="1516.5"
   width="69.31"
   height="63" />
			<rect
   x="0"
   y="1485"
   width="69.300003"
   height="63"
   rx="4.5"
   ry="4.5"
   class="st6"
   id="rect96" />
			<text
   x="15.17"
   y="1505.7"
   class="st2"
   v:langID="1033"
   id="text102"><v:paragraph
   v:horizAlign="1" /><v:tabList />Caliptra<v:newlineChar /><tspan
   x="14.29"
   dy="1.2em"
   class="st4"
   id="tspan98">Mailbox<v:newlineChar /></tspan><tspan
   x="19.27"
   dy="1.2em"
   class="st4"
   id="tspan100">Driver</tspan></text>		</g>
		<g
   id="shape14-37"
   v:mID="14"
   v:groupContext="shape"
   transform="translate(698.332,-954)">
			<title
   id="title105">Sheet.14</title>
			<desc
   id="desc107">SOC Mailbox Driver</desc>
			<v:textBlock
   v:margins="rect(4,4,4,4)" />
			<v:textRect
   cx="34.65"
   cy="1516.5"
   width="69.31"
   height="63" />
			<rect
   x="0"
   y="1485"
   width="69.300003"
   height="63"
   rx="4.5"
   ry="4.5"
   class="st6"
   id="rect109" />
			<text
   x="24.58"
   y="1505.7"
   class="st2"
   v:langID="1033"
   id="text115"><v:paragraph
   v:horizAlign="1" /><v:tabList />SOC<v:newlineChar /><tspan
   x="14.29"
   dy="1.2em"
   class="st4"
   id="tspan111">Mailbox<v:newlineChar /></tspan><tspan
   x="19.27"
   dy="1.2em"
   class="st4"
   id="tspan113">Driver</tspan></text>		</g>
		<g
   id="shape15-42"
   v:mID="15"
   v:groupContext="shape"
   transform="translate(243.084,-1098)">
			<title
   id="title118">Sheet.15</title>
			<desc
   id="desc120">MCTP</desc>
			<v:textBlock
   v:margins="rect(4,4,4,4)" />
			<v:textRect
   cx="49.5"
   cy="1512"
   width="99.01"
   height="72" />
			<rect
   x="0"
   y="1476"
   width="99"
   height="72"
   rx="4.5"
   ry="4.5"
   class="st8"
   id="rect122" />
			<text
   x="34.919998"
   y="1515.6"
   class="st2"
   v:langID="1033"
   id="text124"><v:paragraph
   v:horizAlign="1" /><v:tabList />MCTP</text>		</g>
		<g
   id="shape18-45"
   v:mID="18"
   v:groupContext="shape"
   transform="translate(353.334,-1098.01)">
			<title
   id="title127">Sheet.18</title>
			<desc
   id="desc129">PLDM</desc>
			<v:textBlock
   v:margins="rect(4,4,4,4)" />
			<v:textRect
   cx="49.5"
   cy="1512"
   width="99.01"
   height="71.9928" />
			<rect
   x="0"
   y="1476.01"
   width="99"
   height="71.992798"
   rx="4.5"
   ry="4.5"
   class="st8"
   id="rect131" />
			<text
   x="34.740002"
   y="1515.6"
   class="st2"
   v:langID="1033"
   id="text133"><v:paragraph
   v:horizAlign="1" /><v:tabList />PLDM</text>		</g>
		<g
   id="shape19-48"
   v:mID="19"
   v:groupContext="shape"
   transform="translate(573.834,-1098.01)">
			<title
   id="title136">Sheet.19</title>
			<desc
   id="desc138">OCP Streaming Boot</desc>
			<v:textBlock
   v:margins="rect(4,4,4,4)" />
			<v:textRect
   cx="49.5"
   cy="1512"
   width="99.01"
   height="71.9928" />
			<rect
   x="0"
   y="1476.01"
   width="99"
   height="71.992798"
   rx="4.5"
   ry="4.5"
   class="st8"
   id="rect140" />
			<text
   x="39.07"
   y="1501.2"
   class="st2"
   v:langID="1033"
   id="text146"><v:paragraph
   v:horizAlign="1" /><v:tabList />OCP<v:newlineChar /><tspan
   x="24.049999"
   dy="1.2em"
   class="st4"
   id="tspan142">Streaming<v:newlineChar /></tspan><tspan
   x="37.610001"
   dy="1.2em"
   class="st4"
   id="tspan144">Boot</tspan></text>		</g>
		<g
   id="shape20-53"
   v:mID="20"
   v:groupContext="shape"
   transform="translate(463.584,-1098.01)">
			<title
   id="title149">Sheet.20</title>
			<desc
   id="desc151">SPDM IDE TDISP</desc>
			<v:textBlock
   v:margins="rect(4,4,4,4)" />
			<v:textRect
   cx="49.5"
   cy="1512"
   width="99.01"
   height="71.9928" />
			<rect
   x="0"
   y="1476.01"
   width="99"
   height="71.992798"
   rx="4.5"
   ry="4.5"
   class="st8"
   id="rect153" />
			<text
   x="34.439999"
   y="1501.2"
   class="st2"
   v:langID="1033"
   id="text159"><v:paragraph
   v:horizAlign="1" /><v:tabList />SPDM<v:newlineChar /><tspan
   x="41.189999"
   dy="1.2em"
   class="st4"
   id="tspan155">IDE<v:newlineChar /></tspan><tspan
   x="35.119999"
   dy="1.2em"
   class="st4"
   id="tspan157">TDISP</tspan></text>		</g>
		<g
   id="shape21-58"
   v:mID="21"
   v:groupContext="shape"
   transform="translate(684.084,-1098)">
			<title
   id="title162">Sheet.21</title>
			<desc
   id="desc164">SPI Flash Boot</desc>
			<v:textBlock
   v:margins="rect(4,4,4,4)" />
			<v:textRect
   cx="49.5"
   cy="1512"
   width="99.01"
   height="72" />
			<rect
   x="0"
   y="1476"
   width="99"
   height="72"
   rx="4.5"
   ry="4.5"
   class="st8"
   id="rect166" />
			<text
   x="27.709999"
   y="1508.4"
   class="st2"
   v:langID="1033"
   id="text170"><v:paragraph
   v:horizAlign="1" /><v:tabList />SPI Flash<v:newlineChar /><tspan
   x="37.610001"
   dy="1.2em"
   class="st4"
   id="tspan168">Boot</tspan></text>		</g>
		<g
   id="shape23-62"
   v:mID="23"
   v:groupContext="shape"
   transform="translate(243.086,-1044)">
			<title
   id="title173">Sheet.23</title>
			<desc
   id="desc175">Async User Mode System Call Interface</desc>
			<v:textBlock
   v:margins="rect(4,4,4,4)" />
			<v:textRect
   cx="270"
   cy="1530"
   width="540.01"
   height="36" />
			<rect
   x="0"
   y="1512"
   width="540"
   height="36"
   rx="4.5"
   ry="4.5"
   class="st9"
   id="rect177" />
			<text
   x="172.86"
   y="1533.6"
   class="st2"
   v:langID="1033"
   id="text179"><v:paragraph
   v:horizAlign="1" /><v:tabList />Async User Mode System Call Interface</text>		</g>
		<g
   id="shape24-65"
   v:mID="24"
   v:groupContext="shape"
   transform="rotate(-90,-455.625,815.625)">
			<title
   id="title182">Sheet.24</title>
			<desc
   id="desc184">Image Loading</desc>
			<v:textBlock
   v:margins="rect(4,4,4,4)" />
			<v:textRect
   cx="72"
   cy="1530.96"
   width="144.01"
   height="34.0833" />
			<rect
   x="0"
   y="1513.92"
   width="144"
   height="34.083302"
   rx="4.5"
   ry="4.5"
   class="st10"
   id="rect186" />
			<text
   x="35.849998"
   y="1534.5601"
   class="st2"
   v:langID="1033"
   id="text188"><v:paragraph
   v:horizAlign="1" /><v:tabList />Image Loading</text>		</g>
		<g
   id="shape25-68"
   v:mID="25"
   v:groupContext="shape"
   transform="rotate(-90,-430.29,790.29)">
			<title
   id="title191">Sheet.25</title>
			<desc
   id="desc193">Attestation</desc>
			<v:textBlock
   v:margins="rect(4,4,4,4)" />
			<v:textRect
   cx="72"
   cy="1530.96"
   width="144.01"
   height="34.0833" />
			<rect
   x="0"
   y="1513.92"
   width="144"
   height="34.083302"
   rx="4.5"
   ry="4.5"
   class="st10"
   id="rect195" />
			<text
   x="43.75"
   y="1534.5601"
   class="st2"
   v:langID="1033"
   id="text197"><v:paragraph
   v:horizAlign="1" /><v:tabList />Attestation</text>		</g>
		<g
   id="shape26-71"
   v:mID="26"
   v:groupContext="shape"
   transform="rotate(-90,-404.95,764.95)">
			<title
   id="title200">Sheet.26</title>
			<desc
   id="desc202">Firmware Signing Key Revocation</desc>
			<v:textBlock
   v:margins="rect(4,4,4,4)" />
			<v:textRect
   cx="72"
   cy="1530.96"
   width="144.01"
   height="34.0833" />
			<rect
   x="0"
   y="1513.92"
   width="144"
   height="34.083302"
   rx="4.5"
   ry="4.5"
   class="st10"
   id="rect204" />
			<text
   x="18.4"
   y="1527.36"
   class="st2"
   v:langID="1033"
   id="text208"><v:paragraph
   v:horizAlign="1" /><v:tabList />Firmware Signing Key<v:lf /><tspan
   x="44.07"
   dy="1.2em"
   class="st4"
   id="tspan206">Revocation</tspan></text>		</g>
		<g
   id="shape27-75"
   v:mID="27"
   v:groupContext="shape"
   transform="rotate(-90,-379.615,739.615)">
			<title
   id="title211">Sheet.27</title>
			<desc
   id="desc213">Anti Rollback Protection</desc>
			<v:textBlock
   v:margins="rect(4,4,4,4)" />
			<v:textRect
   cx="72"
   cy="1530.96"
   width="144.01"
   height="34.0833" />
			<rect
   x="0"
   y="1513.92"
   width="144"
   height="34.083302"
   rx="4.5"
   ry="4.5"
   class="st10"
   id="rect215" />
			<text
   x="39.110001"
   y="1527.36"
   class="st2"
   v:langID="1033"
   id="text219"><v:paragraph
   v:horizAlign="1" /><v:tabList />Anti Rollback<v:newlineChar /><tspan
   x="45.84"
   dy="1.2em"
   class="st4"
   id="tspan217">Protection</tspan></text>		</g>
		<g
   id="shape28-79"
   v:mID="28"
   v:groupContext="shape"
   transform="rotate(-90,-328.94,688.94)">
			<title
   id="title222">Sheet.28</title>
			<desc
   id="desc224">Life Cycle Management</desc>
			<v:textBlock
   v:margins="rect(4,4,4,4)" />
			<v:textRect
   cx="72"
   cy="1530.96"
   width="144.01"
   height="34.0833" />
			<rect
   x="0"
   y="1513.92"
   width="144"
   height="34.083302"
   rx="4.5"
   ry="4.5"
   class="st10"
   id="rect226" />
			<text
   x="13.88"
   y="1534.5601"
   class="st2"
   v:langID="1033"
   id="text228"><v:paragraph
   v:horizAlign="1" /><v:tabList />Life Cycle Management</text>		</g>
		<g
   id="shape29-82"
   v:mID="29"
   v:groupContext="shape"
   transform="rotate(-90,-303.6,663.6)">
			<title
   id="title231">Sheet.29</title>
			<desc
   id="desc233">Secure Debug Unlock</desc>
			<v:textBlock
   v:margins="rect(4,4,4,4)" />
			<v:textRect
   cx="72"
   cy="1530.96"
   width="144.01"
   height="34.0833" />
			<rect
   x="0"
   y="1513.92"
   width="144"
   height="34.083302"
   rx="4.5"
   ry="4.5"
   class="st10"
   id="rect235" />
			<text
   x="19.23"
   y="1534.5601"
   class="st2"
   v:langID="1033"
   id="text237"><v:paragraph
   v:horizAlign="1" /><v:tabList />Secure Debug Unlock</text>		</g>
		<g
   id="shape30-85"
   v:mID="30"
   v:groupContext="shape"
   transform="rotate(-90,-278.2625,638.2625)">
			<title
   id="title240">Sheet.30</title>
			<desc
   id="desc242">Ownership Transfer</desc>
			<v:textBlock
   v:margins="rect(4,4,4,4)" />
			<v:textRect
   cx="72"
   cy="1530.96"
   width="144.01"
   height="34.0833" />
			<rect
   x="0"
   y="1513.92"
   width="144"
   height="34.083302"
   rx="4.5"
   ry="4.5"
   class="st10"
   id="rect244" />
			<text
   x="22.700001"
   y="1534.5601"
   class="st2"
   v:langID="1033"
   id="text246"><v:paragraph
   v:horizAlign="1" /><v:tabList />Ownership Transfer</text>		</g>
		<g
   id="shape31-88"
   v:mID="31"
   v:groupContext="shape"
   transform="rotate(-90,-253.1335,613.1335)">
			<title
   id="title249">Sheet.31</title>
			<desc
   id="desc251">Crypto API</desc>
			<v:textBlock
   v:margins="rect(4,4,4,4)" />
			<v:textRect
   cx="72"
   cy="1531.17"
   width="144.01"
   height="33.6667" />
			<rect
   x="0"
   y="1514.33"
   width="144"
   height="33.666698"
   rx="4.5"
   ry="4.5"
   class="st10"
   id="rect253" />
			<text
   x="45.540001"
   y="1534.77"
   class="st2"
   v:langID="1033"
   id="text255"><v:paragraph
   v:horizAlign="1" /><v:tabList />Crypto API</text>		</g>
		<g
   id="shape33-91"
   v:mID="33"
   v:groupContext="shape"
   transform="translate(242.667,-1350)">
			<title
   id="title258">Sheet.33</title>
			<desc
   id="desc260">Platform Message Handler</desc>
			<v:textBlock
   v:margins="rect(4,4,4,4)" />
			<v:textRect
   cx="130.667"
   cy="1530"
   width="261.34"
   height="36" />
			<rect
   x="0"
   y="1512"
   width="261.33301"
   height="36"
   rx="4.5"
   ry="4.5"
   class="st11"
   id="rect262" />
			<text
   x="108.82"
   y="1526.4"
   class="st2"
   v:langID="1033"
   id="text266"><v:paragraph
   v:horizAlign="1" /><v:tabList />Platform<v:newlineChar /><v:paragraph
   v:horizAlign="1" /><tspan
   x="87.620003"
   dy="1.2em"
   class="st4"
   id="tspan264">Message Handler</tspan></text>		</g>
		<g
   id="shape34-95"
   v:mID="34"
   v:groupContext="shape"
   transform="translate(521.333,-1350)">
			<title
   id="title269">Sheet.34</title>
			<desc
   id="desc271">SOC Message Handler</desc>
			<v:textBlock
   v:margins="rect(4,4,4,4)" />
			<v:textRect
   cx="130.667"
   cy="1530"
   width="261.34"
   height="36" />
			<rect
   x="0"
   y="1512"
   width="261.33301"
   height="36"
   rx="4.5"
   ry="4.5"
   class="st11"
   id="rect273" />
			<text
   x="120.6"
   y="1526.4"
   class="st2"
   v:langID="1033"
   id="text277"><v:paragraph
   v:horizAlign="1" /><v:tabList />SOC<v:newlineChar /><tspan
   x="87.620003"
   dy="1.2em"
   class="st4"
   id="tspan275">Message Handler</tspan></text>		</g>
		<g
   id="shape35-99"
   v:mID="35"
   v:groupContext="shape"
   transform="translate(242.667,-1404)">
			<title
   id="title280">Sheet.35</title>
			<desc
   id="desc282">ROT Applications</desc>
			<v:textBlock
   v:margins="rect(4,4,4,4)" />
			<v:textRect
   cx="270"
   cy="1512"
   width="540.01"
   height="72" />
			<rect
   x="0"
   y="1476"
   width="540"
   height="72"
   rx="4.5"
   ry="4.5"
   class="st12"
   id="rect284" />
			<text
   x="227.35001"
   y="1515.6"
   class="st2"
   v:langID="1033"
   id="text286"><v:paragraph
   v:horizAlign="1" /><v:tabList />ROT Applications</text>		</g>
		<g
   id="shape36-102"
   v:mID="36"
   v:groupContext="shape"
   transform="matrix(0,1,1,0,-738,783)">
			<title
   id="title289">Side brace</title>
			<desc
   id="desc291">Dev Platform</desc>
			<v:userDefs>
				<v:ud
   v:nameU="TxtW"
   v:val="VT0(0.55555555555556):29" />
				<v:ud
   v:nameU="TxtA"
   v:val="VT0(1.5707963267949):32" />
				<v:ud
   v:nameU="TxtAState"
   v:val="VT0(0):26" />
				<v:ud
   v:nameU="TxtWState"
   v:val="VT0(0):26" />
				<v:ud
   v:nameU="MaxRadius"
   v:val="VT0(0.25):1" />
				<v:ud
   v:nameU="PosCH1"
   v:prompt="Constrains X position of Control Handle #1"
   v:val="VT0(0):26" />
				<v:ud
   v:nameU="PosCH2"
   v:prompt="Constrains Y position of Control Handle #2"
   v:val="VT0(0):26" />
				<v:ud
   v:nameU="Scale"
   v:val="VT0(1):26" />
				<v:ud
   v:nameU="AntiScale"
   v:val="VT0(1):26" />
				<v:ud
   v:nameU="visVersion"
   v:val="VT0(15):26" />
				<v:ud
   v:nameU="MaxRadius"
   v:prompt=""
   v:val="VT0(0.12499999523163):1" />
			</v:userDefs>
			<v:textBlock
   v:margins="rect(4,4,4,4)" />
			<v:textRect
   cx="18"
   cy="1577"
   width="40"
   height="27.2035"
   transform="rotate(90)" />
			<path
   d="m 0,1530 v 9 a 8.99985,8.99985 -180 0 0 9,9 8.99985,8.99985 0 0 1 9,9 8.99985,8.99985 0 0 1 9,-9 8.99985,8.99985 -180 0 0 9,-9 v -9"
   class="st13"
   id="path293" />
			<text
   x="1570.5699"
   y="15.6"
   transform="matrix(0,1,1,0,0,0)"
   class="st14"
   v:langID="1033"
   id="text297"><v:paragraph
   v:horizAlign="1" /><v:tabList />Dev<v:newlineChar /><tspan
   x="1562.4399"
   dy="1.2em"
   class="st4"
   id="tspan295">Platform</tspan></text>		</g>
		<g
   id="shape37-107"
   v:mID="37"
   v:groupContext="shape"
   transform="matrix(0,1,1,0,-738,724.5)">
			<title
   id="title300">Side brace.37</title>
			<desc
   id="desc302">ROM</desc>
			<v:userDefs>
				<v:ud
   v:nameU="TxtW"
   v:val="VT0(0.55555555555556):29" />
				<v:ud
   v:nameU="TxtA"
   v:val="VT0(1.5707963267949):32" />
				<v:ud
   v:nameU="TxtAState"
   v:val="VT0(0):26" />
				<v:ud
   v:nameU="TxtWState"
   v:val="VT0(0):26" />
				<v:ud
   v:nameU="MaxRadius"
   v:val="VT0(0.25):1" />
				<v:ud
   v:nameU="PosCH1"
   v:prompt="Constrains X position of Control Handle #1"
   v:val="VT0(0):26" />
				<v:ud
   v:nameU="PosCH2"
   v:prompt="Constrains Y position of Control Handle #2"
   v:val="VT0(0):26" />
				<v:ud
   v:nameU="Scale"
   v:val="VT0(1):26" />
				<v:ud
   v:nameU="AntiScale"
   v:val="VT0(1):26" />
				<v:ud
   v:nameU="visVersion"
   v:val="VT0(15):26" />
				<v:ud
   v:nameU="MaxRadius"
   v:prompt=""
   v:val="VT0(0.12499999523163):1" />
			</v:userDefs>
			<v:textBlock
   v:margins="rect(4,4,4,4)" />
			<v:textRect
   cx="18"
   cy="1577"
   width="40"
   height="17.6036"
   transform="rotate(90)" />
			<path
   d="m 0,1530 v 9 a 8.99985,8.99985 -180 0 0 9,9 8.99985,8.99985 0 0 1 9,9 8.99985,8.99985 0 0 1 9,-9 8.99985,8.99985 -180 0 0 9,-9 v -9"
   class="st13"
   id="path304" />
			<text
   x="1568.55"
   y="20.4"
   transform="matrix(0,1,1,0,0,0)"
   class="st14"
   v:langID="1033"
   id="text306"><v:paragraph
   v:horizAlign="1" /><v:tabList />ROM</text>		</g>
		<g
   id="shape38-111"
   v:mID="38"
   v:groupContext="shape"
   transform="matrix(0,1,1,0,-738,531)">
			<title
   id="title309">Side brace.38</title>
			<desc
   id="desc311">Kernel &amp; Drivers</desc>
			<v:userDefs>
				<v:ud
   v:nameU="TxtW"
   v:val="VT0(0.55555555555556):29" />
				<v:ud
   v:nameU="TxtA"
   v:val="VT0(1.5707963267949):32" />
				<v:ud
   v:nameU="TxtAState"
   v:val="VT0(0):26" />
				<v:ud
   v:nameU="TxtWState"
   v:val="VT0(0):26" />
				<v:ud
   v:nameU="MaxRadius"
   v:val="VT0(0.25):1" />
				<v:ud
   v:nameU="PosCH1"
   v:prompt="Constrains X position of Control Handle #1"
   v:val="VT0(0):26" />
				<v:ud
   v:nameU="PosCH2"
   v:prompt="Constrains Y position of Control Handle #2"
   v:val="VT0(0):26" />
				<v:ud
   v:nameU="Scale"
   v:val="VT0(1):26" />
				<v:ud
   v:nameU="AntiScale"
   v:val="VT0(1):26" />
				<v:ud
   v:nameU="visVersion"
   v:val="VT0(15):26" />
			</v:userDefs>
			<v:textBlock
   v:margins="rect(4,4,4,4)" />
			<v:textRect
   cx="85.6584"
   cy="1572.5"
   width="40"
   height="27.2035"
   transform="rotate(90)" />
			<path
   d="m 0,1530 v 13.5 a 4.49993,4.49993 -180 0 0 4.5,4.5 h 76.66 a 4.49993,4.49993 0 0 1 4.5,4.5 4.49993,4.49993 0 0 1 4.5,-4.5 h 76.66 a 4.49993,4.49993 -180 0 0 4.5,-4.5 V 1530"
   class="st13"
   id="path313" />
			<text
   x="1558.01"
   y="83.260002"
   transform="matrix(0,1,1,0,0,0)"
   class="st14"
   v:langID="1033"
   id="text317"><v:paragraph
   v:horizAlign="1" /><v:tabList />Kernel &amp;<v:newlineChar /><tspan
   x="1560.65"
   dy="1.2em"
   class="st4"
   id="tspan315">Drivers</tspan></text>		</g>
		<g
   id="shape39-116"
   v:mID="39"
   v:groupContext="shape"
   transform="matrix(0,1,1,0,-738,477)">
			<title
   id="title320">Side brace.39</title>
			<desc
   id="desc322">Sys Calls</desc>
			<v:userDefs>
				<v:ud
   v:nameU="TxtW"
   v:val="VT0(0.55555555555556):29" />
				<v:ud
   v:nameU="TxtA"
   v:val="VT0(1.5707963267949):32" />
				<v:ud
   v:nameU="TxtAState"
   v:val="VT0(0):26" />
				<v:ud
   v:nameU="TxtWState"
   v:val="VT0(0):26" />
				<v:ud
   v:nameU="MaxRadius"
   v:val="VT0(0.25):1" />
				<v:ud
   v:nameU="PosCH1"
   v:prompt="Constrains X position of Control Handle #1"
   v:val="VT0(0):26" />
				<v:ud
   v:nameU="PosCH2"
   v:prompt="Constrains Y position of Control Handle #2"
   v:val="VT0(0):26" />
				<v:ud
   v:nameU="Scale"
   v:val="VT0(1):26" />
				<v:ud
   v:nameU="AntiScale"
   v:val="VT0(1):26" />
				<v:ud
   v:nameU="visVersion"
   v:val="VT0(15):26" />
				<v:ud
   v:nameU="MaxRadius"
   v:prompt=""
   v:val="VT0(0.12499999523163):1" />
			</v:userDefs>
			<v:textBlock
   v:margins="rect(4,4,4,4)" />
			<v:textRect
   cx="18"
   cy="1577"
   width="40"
   height="17.6036"
   transform="rotate(90)" />
			<path
   d="m 0,1530 v 9 a 8.99985,8.99985 -180 0 0 9,9 8.99985,8.99985 0 0 1 9,9 8.99985,8.99985 0 0 1 9,-9 8.99985,8.99985 -180 0 0 9,-9 v -9"
   class="st13"
   id="path324" />
			<text
   x="1563.0601"
   y="20.4"
   transform="matrix(0,1,1,0,0,0)"
   class="st14"
   v:langID="1033"
   id="text326"><v:paragraph
   v:horizAlign="1" /><v:tabList />Sys Calls</text>		</g>
		<g
   id="shape40-120"
   v:mID="40"
   v:groupContext="shape"
   transform="matrix(0,1,1,0,-738,373.5)">
			<title
   id="title329">Side brace.40</title>
			<desc
   id="desc331">Stacks</desc>
			<v:userDefs>
				<v:ud
   v:nameU="TxtW"
   v:val="VT0(0.55555555555556):29" />
				<v:ud
   v:nameU="TxtA"
   v:val="VT0(1.5707963267949):32" />
				<v:ud
   v:nameU="TxtAState"
   v:val="VT0(0):26" />
				<v:ud
   v:nameU="TxtWState"
   v:val="VT0(0):26" />
				<v:ud
   v:nameU="MaxRadius"
   v:val="VT0(0.25):1" />
				<v:ud
   v:nameU="PosCH1"
   v:prompt="Constrains X position of Control Handle #1"
   v:val="VT0(0):26" />
				<v:ud
   v:nameU="PosCH2"
   v:prompt="Constrains Y position of Control Handle #2"
   v:val="VT0(0):26" />
				<v:ud
   v:nameU="Scale"
   v:val="VT0(1):26" />
				<v:ud
   v:nameU="AntiScale"
   v:val="VT0(1):26" />
				<v:ud
   v:nameU="visVersion"
   v:val="VT0(15):26" />
			</v:userDefs>
			<v:textBlock
   v:margins="rect(4,4,4,4)" />
			<v:textRect
   cx="42.75"
   cy="1577"
   width="40"
   height="17.6036"
   transform="rotate(90)" />
			<path
   d="m 0,1530 v 9 a 8.99985,8.99985 -180 0 0 9,9 h 24.75 a 8.99985,8.99985 0 0 1 9,9 8.99985,8.99985 0 0 1 9,-9 H 76.5 a 8.99985,8.99985 -180 0 0 9,-9 v -9"
   class="st13"
   id="path333" />
			<text
   x="1566.5601"
   y="45.150002"
   transform="matrix(0,1,1,0,0,0)"
   class="st14"
   v:langID="1033"
   id="text335"><v:paragraph
   v:horizAlign="1" /><v:tabList />Stacks</text>		</g>
		<g
   id="shape41-124"
   v:mID="41"
   v:groupContext="shape"
   transform="matrix(0,1,1,0,-738,216)">
			<title
   id="title338">Side brace.41</title>
			<desc
   id="desc340">API &amp; Services</desc>
			<v:userDefs>
				<v:ud
   v:nameU="TxtW"
   v:val="VT0(0.55555555555556):29" />
				<v:ud
   v:nameU="TxtA"
   v:val="VT0(1.5707963267949):32" />
				<v:ud
   v:nameU="TxtAState"
   v:val="VT0(0):26" />
				<v:ud
   v:nameU="TxtWState"
   v:val="VT0(0):26" />
				<v:ud
   v:nameU="MaxRadius"
   v:val="VT0(0.25):1" />
				<v:ud
   v:nameU="PosCH1"
   v:prompt="Constrains X position of Control Handle #1"
   v:val="VT0(0):26" />
				<v:ud
   v:nameU="PosCH2"
   v:prompt="Constrains Y position of Control Handle #2"
   v:val="VT0(0):26" />
				<v:ud
   v:nameU="Scale"
   v:val="VT0(1):26" />
				<v:ud
   v:nameU="AntiScale"
   v:val="VT0(1):26" />
				<v:ud
   v:nameU="visVersion"
   v:val="VT0(15):26" />
			</v:userDefs>
			<v:textBlock
   v:margins="rect(4,4,4,4)" />
			<v:textRect
   cx="72"
   cy="1577"
   width="40"
   height="27.2035"
   transform="rotate(90)" />
			<path
   d="m 0,1530 v 9 a 8.99985,8.99985 -180 0 0 9,9 h 54 a 8.99985,8.99985 0 0 1 9,9 8.99985,8.99985 0 0 1 9,-9 h 54 a 8.99985,8.99985 -180 0 0 9,-9 v -9"
   class="st13"
   id="path342" />
			<text
   x="1567.66"
   y="69.599998"
   transform="matrix(0,1,1,0,0,0)"
   class="st14"
   v:langID="1033"
   id="text346"><v:paragraph
   v:horizAlign="1" /><v:tabList />API &amp;<v:newlineChar /><tspan
   x="1563.52"
   dy="1.2em"
   class="st4"
   id="tspan344">Services</tspan></text>		</g>
		<g
   id="shape42-129"
   v:mID="42"
   v:groupContext="shape"
   transform="matrix(0,1,1,0,-738,162)">
			<title
   id="title349">Side brace.42</title>
			<desc
   id="desc351">Message Handlers</desc>
			<v:userDefs>
				<v:ud
   v:nameU="TxtW"
   v:val="VT0(0.55555555555556):29" />
				<v:ud
   v:nameU="TxtA"
   v:val="VT0(1.5707963267949):32" />
				<v:ud
   v:nameU="TxtAState"
   v:val="VT0(0):26" />
				<v:ud
   v:nameU="TxtWState"
   v:val="VT0(0):26" />
				<v:ud
   v:nameU="MaxRadius"
   v:val="VT0(0.25):1" />
				<v:ud
   v:nameU="PosCH1"
   v:prompt="Constrains X position of Control Handle #1"
   v:val="VT0(0):26" />
				<v:ud
   v:nameU="PosCH2"
   v:prompt="Constrains Y position of Control Handle #2"
   v:val="VT0(0):26" />
				<v:ud
   v:nameU="Scale"
   v:val="VT0(1):26" />
				<v:ud
   v:nameU="AntiScale"
   v:val="VT0(1):26" />
				<v:ud
   v:nameU="visVersion"
   v:val="VT0(15):26" />
				<v:ud
   v:nameU="MaxRadius"
   v:prompt=""
   v:val="VT0(0.12499999523163):1" />
			</v:userDefs>
			<v:textBlock
   v:margins="rect(4,4,4,4)" />
			<v:textRect
   cx="18"
   cy="1577"
   width="40"
   height="27.2035"
   transform="rotate(90)" />
			<path
   d="m 0,1530 v 9 a 8.99985,8.99985 -180 0 0 9,9 8.99985,8.99985 0 0 1 9,9 8.99985,8.99985 0 0 1 9,-9 8.99985,8.99985 -180 0 0 9,-9 v -9"
   class="st13"
   id="path353" />
			<text
   x="1562.41"
   y="15.6"
   transform="matrix(0,1,1,0,0,0)"
   class="st14"
   v:langID="1033"
   id="text357"><v:paragraph
   v:horizAlign="1" /><v:tabList />Message<v:newlineChar /><tspan
   x="1562.2"
   dy="1.2em"
   class="st4"
   id="tspan355">Handlers</tspan></text>		</g>
		<g
   id="shape43-134"
   v:mID="43"
   v:groupContext="shape"
   transform="matrix(0,1,1,0,-738,72)">
			<title
   id="title360">Side brace.43</title>
			<desc
   id="desc362">Apps</desc>
			<v:userDefs>
				<v:ud
   v:nameU="TxtW"
   v:val="VT0(0.55555555555556):29" />
				<v:ud
   v:nameU="TxtA"
   v:val="VT0(1.5707963267949):32" />
				<v:ud
   v:nameU="TxtAState"
   v:val="VT0(0):26" />
				<v:ud
   v:nameU="TxtWState"
   v:val="VT0(0):26" />
				<v:ud
   v:nameU="MaxRadius"
   v:val="VT0(0.25):1" />
				<v:ud
   v:nameU="PosCH1"
   v:prompt="Constrains X position of Control Handle #1"
   v:val="VT0(0):26" />
				<v:ud
   v:nameU="PosCH2"
   v:prompt="Constrains Y position of Control Handle #2"
   v:val="VT0(0):26" />
				<v:ud
   v:nameU="Scale"
   v:val="VT0(1):26" />
				<v:ud
   v:nameU="AntiScale"
   v:val="VT0(1):26" />
				<v:ud
   v:nameU="visVersion"
   v:val="VT0(15):26" />
				<v:ud
   v:nameU="MaxRadius"
   v:prompt=""
   v:val="VT0(0.24999984204769):1" />
			</v:userDefs>
			<v:textBlock
   v:margins="rect(4,4,4,4)" />
			<v:textRect
   cx="36"
   cy="1577"
   width="40"
   height="17.6036"
   transform="rotate(90)" />
			<path
   d="m 0,1530 v 9 a 8.99985,8.99985 -180 0 0 9,9 h 18 a 8.99985,8.99985 0 0 1 9,9 8.99985,8.99985 0 0 1 9,-9 h 18 a 8.99985,8.99985 -180 0 0 9,-9 v -9"
   class="st13"
   id="path364" />
			<text
   x="1568.6899"
   y="38.400002"
   transform="matrix(0,1,1,0,0,0)"
   class="st14"
   v:langID="1033"
   id="text366"><v:paragraph
   v:horizAlign="1" /><v:tabList />Apps</text>		</g>
		<g
   id="shape1000-138"
   v:mID="1000"
   v:groupContext="shape"
   transform="translate(436,-729)">
			<title
   id="title369">Sheet.1000</title>
			<desc
   id="desc371">RTL Simulator</desc>
			<v:textBlock
   v:margins="rect(4,4,4,4)" />
			<v:textRect
   cx="76.6667"
   cy="1530"
   width="153.34"
   height="36" />
			<rect
   x="0"
   y="1512"
   width="153.33299"
   height="36"
   rx="4.5"
   ry="4.5"
   class="st3"
   id="rect373" />
			<text
   x="42.139999"
   y="1533.6"
   class="st2"
   v:langID="1033"
   id="text375"><v:paragraph
   v:horizAlign="1" /><v:tabList />RTL Simulator</text>		</g>
		<g
   id="shape1001-141"
   v:mID="1001"
   v:groupContext="shape"
   transform="rotate(-90,-228.004,588.004)">
			<title
   id="title378">Sheet.1001</title>
			<desc
   id="desc380">Certificate Store</desc>
			<v:textBlock
   v:margins="rect(4,4,4,4)" />
			<v:textRect
   cx="72"
   cy="1531.17"
   width="144.01"
   height="33.6667" />
			<rect
   x="0"
   y="1514.33"
   width="144"
   height="33.666698"
   rx="4.5"
   ry="4.5"
   class="st10"
   id="rect382" />
			<text
   x="46.169998"
   y="1527.5699"
   class="st2"
   v:langID="1033"
   id="text386"><v:paragraph
   v:horizAlign="1" /><v:tabList />Certificate<v:newlineChar /><tspan
   x="58.700001"
   dy="1.2em"
   class="st4"
   id="tspan384">Store</tspan></text>		</g>
		<g
   id="shape1002-145"
   v:mID="1002"
   v:groupContext="shape"
   transform="rotate(-90,-202.6665,562.6665)">
			<title
   id="title389">Sheet.1002</title>
			<desc
   id="desc391">Key Value Store</desc>
			<v:textBlock
   v:margins="rect(4,4,4,4)" />
			<v:textRect
   cx="72"
   cy="1530.96"
   width="144.01"
   height="34.0833" />
			<rect
   x="0"
   y="1513.92"
   width="144"
   height="34.083302"
   rx="4.5"
   ry="4.5"
   class="st10"
   id="rect393" />
			<text
   x="47.279999"
   y="1527.36"
   class="st2"
   v:langID="1033"
   id="text397"><v:paragraph
   v:horizAlign="1" /><v:tabList />Key Value<v:newlineChar /><tspan
   x="58.700001"
   dy="1.2em"
   class="st4"
   id="tspan395">Store</tspan></text>		</g>
		<g
   id="shape1003-149"
   v:mID="1003"
   v:groupContext="shape"
   transform="matrix(0,-1,-1,0,1764,702.292)">
			<title
   id="title400">Side brace.1003</title>
			<desc
   id="desc402">MCU SDK</desc>
			<v:userDefs>
				<v:ud
   v:nameU="TxtW"
   v:val="VT0(0.55555555555556):29" />
				<v:ud
   v:nameU="TxtA"
   v:val="VT0(1.5707963267949):32" />
				<v:ud
   v:nameU="TxtAState"
   v:val="VT0(0):26" />
				<v:ud
   v:nameU="TxtWState"
   v:val="VT0(0):26" />
				<v:ud
   v:nameU="MaxRadius"
   v:val="VT0(0.25):1" />
				<v:ud
   v:nameU="PosCH1"
   v:prompt="Constrains X position of Control Handle #1"
   v:val="VT0(0):26" />
				<v:ud
   v:nameU="PosCH2"
   v:prompt="Constrains Y position of Control Handle #2"
   v:val="VT0(0):26" />
				<v:ud
   v:nameU="Scale"
   v:val="VT0(1):26" />
				<v:ud
   v:nameU="AntiScale"
   v:val="VT0(1):26" />
				<v:ud
   v:nameU="visVersion"
   v:val="VT0(15):26" />
				<v:ud
   v:nameU="TxtA"
   v:prompt=""
   v:val="VT0(-1.5707963267949):32" />
			</v:userDefs>
			<v:textBlock
   v:margins="rect(4,4,4,4)" />
			<v:textRect
   cx="243.146"
   cy="1577"
   width="40"
   height="27.2035"
   transform="rotate(-90)" />
			<path
   d="m 0,1530 v 9 a 8.99985,8.99985 -180 0 0 9,9 h 225.15 a 8.99985,8.99985 0 0 1 9,9 8.99985,8.99985 0 0 1 9,-9 h 225.14 a 8.99985,8.99985 -180 0 0 9,-9 v -9"
   class="st13"
   id="path404" />
			<text
   x="-1585.22"
   y="-245.55"
   transform="matrix(0,-1,-1,0,0,0)"
   class="st15"
   v:langID="1033"
   id="text408"><v:paragraph
   v:horizAlign="1" /><v:tabList />MCU<v:newlineChar /><tspan
   x="-1583.6"
   dy="1.2em"
   class="st4"
   id="tspan406">SDK</tspan></text>		</g>
		<g
   id="shape1004-154"
   v:mID="1004"
   v:groupContext="shape"
   transform="matrix(0,-1,-1,0,1764,762.75)">
			<title
   id="title411">Side brace.1004</title>
			<desc
   id="desc413">Silicon Vendor Provided</desc>
			<v:userDefs>
				<v:ud
   v:nameU="TxtW"
   v:val="VT0(0.55555555555556):29" />
				<v:ud
   v:nameU="TxtA"
   v:val="VT0(1.5707963267949):32" />
				<v:ud
   v:nameU="TxtAState"
   v:val="VT0(0):26" />
				<v:ud
   v:nameU="TxtWState"
   v:val="VT0(0):26" />
				<v:ud
   v:nameU="MaxRadius"
   v:val="VT0(0.25):1" />
				<v:ud
   v:nameU="PosCH1"
   v:prompt="Constrains X position of Control Handle #1"
   v:val="VT0(0):26" />
				<v:ud
   v:nameU="PosCH2"
   v:prompt="Constrains Y position of Control Handle #2"
   v:val="VT0(0):26" />
				<v:ud
   v:nameU="Scale"
   v:val="VT0(1):26" />
				<v:ud
   v:nameU="AntiScale"
   v:val="VT0(1):26" />
				<v:ud
   v:nameU="visVersion"
   v:val="VT0(15):26" />
				<v:ud
   v:nameU="TxtA"
   v:prompt=""
   v:val="VT0(-1.5707963267949):32" />
				<v:ud
   v:nameU="MaxRadius"
   v:prompt=""
   v:val="VT0(0.12499999523163):1" />
			</v:userDefs>
			<v:textBlock
   v:margins="rect(4,4,4,4)" />
			<v:textRect
   cx="18"
   cy="1577"
   width="40"
   height="36.8035"
   transform="rotate(-90)" />
			<path
   d="m 0,1530 v 9 a 8.99985,8.99985 -180 0 0 9,9 8.99985,8.99985 0 0 1 9,9 8.99985,8.99985 0 0 1 9,-9 8.99985,8.99985 -180 0 0 9,-9 v -9"
   class="st13"
   id="path415" />
			<text
   x="-1587.8101"
   y="-25.200001"
   transform="matrix(0,-1,-1,0,0,0)"
   class="st16"
   v:langID="1033"
   id="text421"><v:paragraph
   v:horizAlign="1" /><v:tabList />Silicon<v:newlineChar /><tspan
   x="-1589.24"
   dy="1.2em"
   class="st4"
   id="tspan417">Vendor<v:newlineChar /></tspan><tspan
   x="-1591.88"
   dy="1.2em"
   class="st4"
   id="tspan419">Provided</tspan></text>		</g>
		<g
   id="shape1005-160"
   v:mID="1005"
   v:groupContext="shape"
   transform="matrix(0,-1,-1,0,1764,198)">
			<title
   id="title424">Side brace.1005</title>
			<desc
   id="desc426">Silicon Vendor Provided</desc>
			<v:userDefs>
				<v:ud
   v:nameU="TxtW"
   v:val="VT0(0.55555555555556):29" />
				<v:ud
   v:nameU="TxtA"
   v:val="VT0(1.5707963267949):32" />
				<v:ud
   v:nameU="TxtAState"
   v:val="VT0(0):26" />
				<v:ud
   v:nameU="TxtWState"
   v:val="VT0(0):26" />
				<v:ud
   v:nameU="MaxRadius"
   v:val="VT0(0.25):1" />
				<v:ud
   v:nameU="PosCH1"
   v:prompt="Constrains X position of Control Handle #1"
   v:val="VT0(0):26" />
				<v:ud
   v:nameU="PosCH2"
   v:prompt="Constrains Y position of Control Handle #2"
   v:val="VT0(0):26" />
				<v:ud
   v:nameU="Scale"
   v:val="VT0(1):26" />
				<v:ud
   v:nameU="AntiScale"
   v:val="VT0(1):26" />
				<v:ud
   v:nameU="visVersion"
   v:val="VT0(15):26" />
				<v:ud
   v:nameU="TxtA"
   v:prompt=""
   v:val="VT0(-1.5707963267949):32" />
			</v:userDefs>
			<v:textBlock
   v:margins="rect(4,4,4,4)" />
			<v:textRect
   cx="63"
   cy="1577"
   width="40"
   height="36.8035"
   transform="rotate(-90)" />
			<path
   d="m 0,1530 v 9 a 8.99985,8.99985 -180 0 0 9,9 h 45 a 8.99985,8.99985 0 0 1 9,9 8.99985,8.99985 0 0 1 9,-9 h 45 a 8.99985,8.99985 -180 0 0 9,-9 v -9"
   class="st13"
   id="path428" />
			<text
   x="-1587.8101"
   y="-70.199997"
   transform="matrix(0,-1,-1,0,0,0)"
   class="st16"
   v:langID="1033"
   id="text434"><v:paragraph
   v:horizAlign="1" /><v:tabList />Silicon<v:newlineChar /><tspan
   x="-1589.24"
   dy="1.2em"
   class="st4"
   id="tspan430">Vendor<v:newlineChar /></tspan><tspan
   x="-1591.88"
   dy="1.2em"
   class="st4"
   id="tspan432">Provided</tspan></text>		</g>
		<g
   id="shape1006-166"
   v:mID="1006"
   v:groupContext="shape"
   transform="matrix(0,-1,-1,0,1764,819)">
			<title
   id="title437">Side brace.1006</title>
			<desc
   id="desc439">MCU SDK Ref. HW</desc>
			<v:userDefs>
				<v:ud
   v:nameU="TxtW"
   v:val="VT0(0.55555555555556):29" />
				<v:ud
   v:nameU="TxtA"
   v:val="VT0(1.5707963267949):32" />
				<v:ud
   v:nameU="TxtAState"
   v:val="VT0(0):26" />
				<v:ud
   v:nameU="TxtWState"
   v:val="VT0(0):26" />
				<v:ud
   v:nameU="MaxRadius"
   v:val="VT0(0.25):1" />
				<v:ud
   v:nameU="PosCH1"
   v:prompt="Constrains X position of Control Handle #1"
   v:val="VT0(0):26" />
				<v:ud
   v:nameU="PosCH2"
   v:prompt="Constrains Y position of Control Handle #2"
   v:val="VT0(0):26" />
				<v:ud
   v:nameU="Scale"
   v:val="VT0(1):26" />
				<v:ud
   v:nameU="AntiScale"
   v:val="VT0(1):26" />
				<v:ud
   v:nameU="visVersion"
   v:val="VT0(15):26" />
				<v:ud
   v:nameU="TxtA"
   v:prompt=""
   v:val="VT0(-1.5707963267949):32" />
				<v:ud
   v:nameU="MaxRadius"
   v:prompt=""
   v:val="VT0(0.12499999523163):1" />
			</v:userDefs>
			<v:textBlock
   v:margins="rect(4,4,4,4)" />
			<v:textRect
   cx="18"
   cy="1577"
   width="40"
   height="27.2035"
   transform="rotate(-90)" />
			<path
   d="m 0,1530 v 9 a 8.99985,8.99985 -180 0 0 9,9 8.99985,8.99985 0 0 1 9,9 8.99985,8.99985 0 0 1 9,-9 8.99985,8.99985 -180 0 0 9,-9 v -9"
   class="st13"
   id="path441" />
			<text
   x="-1592.73"
   y="-20.4"
   transform="matrix(0,-1,-1,0,0,0)"
   class="st15"
   v:langID="1033"
   id="text445"><v:paragraph
   v:horizAlign="1" /><v:tabList />MCU SDK<v:newlineChar /><tspan
   x="-1590.65"
   dy="1.2em"
   class="st4"
   id="tspan443">Ref. HW</tspan></text>		</g>
		<g
   id="shape1007-171"
   v:mID="1007"
   v:groupContext="shape"
   transform="translate(431.208,-882)">
			<title
   id="title448">Sheet.1007</title>
			<desc
   id="desc450">Silicon Specific Drivers</desc>
			<v:textBlock
   v:margins="rect(4,4,4,4)" />
			<v:textRect
   cx="36"
   cy="1516.5"
   width="72.01"
   height="63" />
			<rect
   x="0"
   y="1485"
   width="72"
   height="63"
   rx="4.5"
   ry="4.5"
   class="st6"
   id="rect452" />
			<text
   x="19.790001"
   y="1505.7"
   class="st7"
   v:langID="1033"
   id="text458"><v:paragraph
   v:horizAlign="1" /><v:tabList />Silicon<v:newlineChar /><tspan
   x="17.059999"
   dy="1.2em"
   class="st4"
   id="tspan454">Specific<v:newlineChar /></tspan><tspan
   x="18.23"
   dy="1.2em"
   class="st4"
   id="tspan456">Drivers</tspan></text>		</g>
		<g
   id="shape1008-176"
   v:mID="1008"
   v:groupContext="shape"
   transform="rotate(-90,-354.275,714.275)">
			<title
   id="title461">Sheet.1008</title>
			<desc
   id="desc463">Firmware Update</desc>
			<v:textBlock
   v:margins="rect(4,4,4,4)" />
			<v:textRect
   cx="72"
   cy="1530.96"
   width="144.01"
   height="34.0833" />
			<rect
   x="0"
   y="1513.92"
   width="144"
   height="34.083302"
   rx="4.5"
   ry="4.5"
   class="st10"
   id="rect465" />
			<text
   x="48.169998"
   y="1527.36"
   class="st2"
   v:langID="1033"
   id="text469"><v:paragraph
   v:horizAlign="1" /><v:tabList />Firmware<v:newlineChar /><tspan
   x="53.580002"
   dy="1.2em"
   class="st4"
   id="tspan467">Update</tspan></text>		</g>
		<g
   id="shape1009-180"
   v:mID="1009"
   v:groupContext="shape"
   transform="translate(431.413,-954)">
			<title
   id="title472">Sheet.1009</title>
			<desc
   id="desc474">MCTP Driver</desc>
			<v:textBlock
   v:margins="rect(4,4,4,4)" />
			<v:textRect
   cx="36"
   cy="1516.5"
   width="72.01"
   height="63" />
			<rect
   x="0"
   y="1485"
   width="72"
   height="63"
   rx="4.5"
   ry="4.5"
   class="st6"
   id="rect476" />
			<text
   x="21.42"
   y="1512.9"
   class="st2"
   v:langID="1033"
   id="text480"><v:paragraph
   v:horizAlign="1" /><v:tabList />MCTP<v:newlineChar /><v:paragraph
   v:horizAlign="1" /><tspan
   x="20.620001"
   dy="1.2em"
   class="st4"
   id="tspan478">Driver</tspan></text>		</g>
		<g
   id="shape1010-184"
   v:mID="1010"
   v:groupContext="shape"
   transform="translate(251.669,-882)">
			<title
   id="title483">Sheet.1010</title>
			<desc
   id="desc485">IDE &amp; TDISP Driver (Vendor)</desc>
			<v:textBlock
   v:margins="rect(4,4,4,4)" />
			<v:textRect
   cx="36"
   cy="1516.5"
   width="72.01"
   height="63" />
			<rect
   x="0"
   y="1485"
   width="72"
   height="63"
   rx="4.5"
   ry="4.5"
   class="st6"
   id="rect487" />
			<text
   x="6.3699999"
   y="1505.7"
   class="st7"
   v:langID="1033"
   id="text493"><v:paragraph
   v:horizAlign="1" /><v:tabList />IDE &amp; TDISP<v:newlineChar /><v:paragraph
   v:horizAlign="1" /><tspan
   x="20.620001"
   dy="1.2em"
   class="st4"
   id="tspan489">Driver<v:newlineChar /><v:paragraph
   v:horizAlign="1" /></tspan><tspan
   x="13.9"
   dy="1.2em"
   class="st4"
   id="tspan491">(Vendor)</tspan></text>		</g>
	</g>
</svg>
